<svg  xmlns="http://www.w3.org/2000/svg" width="106.457px" height="45.534px">
<path style="fill:#1B9D6F;" d="M25.905,25.85c-0.023-0.43-0.13-0.951-0.137-1.126c-0.263-6.85-2.769-8.759-3.459-9.116
	c-1.817-1.301-4.034,0.085-5.285,1.971c-0.311,0.206-0.53,0.6-0.771,0.85c-0.971-3.617-3.035-4.97-3.594-5.134
	c-0.137-0.036-1.085-0.474-1.569-0.188c-0.899-0.021-1.744,0.518-2.491,0.872c-0.292,0.141-0.314,0.411-0.605,0.509
	c-1.46,1.169-4.601,3.999-6.265,9.938c-0.098,0.601-0.365,1.409-0.235,1.996c0.218,0.021,0.384,0.602,0.655,0.496
	c0.044,0.42,0.96-0.124,0.812,0.311c0.417,0.305,0.857,0.014,1.324-0.07c1.671-0.44,2.426-1.314,2.577-1.51
	c0.779-0.351,0.708-0.711,1.038-1.342c0.318-0.136,0.082-0.423,0.333-0.621c-0.005-0.256,0.483-1.311,0.726-1.803
	c0.084,0.046,0.27-0.158,0.416-0.479c0,0,0.782-2.053,2.078-2.146c0.811-0.058,1.282,0.57,1.568,0.995
	c1.261,1.877,0.998,2.517,1.816,3.271c0.529,0.486,1.508,0.244,1.956,0.006c0.167-0.354,0.465-0.175,0.674-0.517
	c0.213-0.193,0.539-0.266,0.611-0.637c0.326-0.333,0.595-0.996,1.022-1.622c0.555-0.812,1.324-1.364,2.072-1.371
	c0.622-0.005,0.724,0.475,1.082,0.76c0.808-0.457,2.1,3.479,2.229,3.5c0.101,0.028,0.165,0.145,0.165,0.145
	c0.112,0.139,0.339,1.068,0.402,1.246c0.015,0.043,0.035,0.095,0.08,0.1c0.004-0.035,0.059-0.057,0.053-0.084
	c-0.03-0.058,0.056-0.173,0.049-0.238c-0.002-0.037-0.032-0.055-0.034-0.092c-0.013-0.084,0.015,0.022,0.004-0.07
	c-0.006-0.02-0.013-0.03-0.019-0.049c0.003-0.018-0.001-0.046,0.011-0.063c0.011-0.007,0.027,0.005,0.045,0.008
	c-0.002,0.009,0.004,0.028,0.002,0.037c0.036,0.061,0.137,0.119,0.146,0.175c0.018,0.067-0.005,0.082,0.024,0.133
	c-0.015,0.089,0.088,0.179,0.092,0.271c-0.001,0.01,0.042,0.03,0.049,0.041c0,0.118,0.049,0.133,0.115,0.23
	c0.024,0.039,0.03,0.076,0.044,0.113c0.006,0.028,0.002,0.064,0.009,0.092c0.029,0.085,0.119,0.182,0.128,0.273
	c-0.002,0.018,0.037,0.014,0.056,0.016C25.904,25.896,25.906,25.879,25.905,25.85z"/>
<path style="fill-rule:evenodd;clip-rule:evenodd;fill:#FFB300;" d="M35.734,21.326c0.058,0.395,0.083,0.882,0.083,0.882
	c-0.052,0.09-0.136,0.517,0.049,0.479c0.012,0.822-0.075,1.023-0.082,1.684c0.003,0.017,0.006,0.03,0.009,0.047
	c0,0,0.042,0.213,0.025,0.344c0.104,0.039-0.025,0.191-0.029,0.26c-0.004,0.018-0.023,0.246-0.063,0.389
	c-0.006,0.04-0.011,0.082-0.018,0.121c-0.003,0.832-0.063,1.377-0.217,2.116c-0.103,0.682-0.23,1.318-0.398,1.962
	c-0.059,0.375-0.119,0.738-0.238,1.033c-0.017,0.269-0.754,1.879-0.835,2.102c-0.088,0.296-0.119,0.527-0.324,0.887
	c-0.009,0.018-0.148,0.284-0.238,0.414c-0.019,0.037-0.047,0.092-0.066,0.128c-0.37,1.001-0.73,1.271-1.199,1.856
	c-0.404,0.578-0.8,1.319-1.234,1.74c-0.223,0.283-0.34,0.551-0.571,0.699c-0.139,0.219-1.12,1.102-1.285,1.218
	c-0.2,0.171-0.408,0.31-0.591,0.629c-0.154,0.023-0.378,0.482-0.507,0.29c-1.185,0.831-0.641,0.563-1.532,1.182
	c-0.114,0.073-0.27,0.037-0.337,0.293c-0.269,0.123-0.702,0.592-1.027,0.565c-0.206,0.135-0.761,0.455-0.964,0.585
	c-0.069-0.018-0.094,0.061-0.13,0.107c-0.159-0.041-0.765,0.471-0.919,0.375c-0.277,0.152-0.618,0.323-0.896,0.467
	c-0.029,0-0.764,0.314-1.235,0.463c-0.04,0.021-0.066,0.035-0.105,0.057c-0.339,0.061-0.611,0.298-0.942,0.283
	c-0.145,0.068-0.325,0.041-0.463,0.139c-0.396,0.105-0.777,0.314-1.033,0.363c-0.294,0.055-0.542,0.055-0.83,0.044
	c0.31-0.065,0.418-0.123,0.729-0.253c0.118-0.021,0.201-0.08,0.25-0.15c0.018-0.021,0.066,0.001,0.104-0.021
	c0.331-0.189,0.665-0.225,1.009-0.407c0.635-0.151,1.065-0.703,1.687-0.73c0.215-0.279,0.561-0.359,0.833-0.502
	c0.388-0.18,0.915-0.609,1.133-0.742c0.217-0.137,0.675-0.468,0.767-0.59c0.068-0.088,0.376-0.344,0.376-0.344
	c0.112-0.131,0.002-0.252-0.304-0.113c-0.115,0.055-0.442,0.27-0.535,0.281c0,0-0.124-0.031-0.183-0.025
	c-0.059,0.008-0.196,0.095-0.255,0.103c-0.033,0.116-0.046,0.233-0.126,0.319c-0.019,0.021-0.229,0.106-0.24,0.145
	c-0.022,0.034-0.045,0.039-0.066,0.073c-0.022,0.034-0.061,0.021-0.083,0.054c-0.066-0.009-0.109,0.029-0.176,0.021
	c-0.016,0.01-0.024,0.005-0.042,0.027c-0.013-0.005-0.019-0.007-0.031-0.012c-0.029,0.007-0.052-0.008-0.083,0.012
	c-0.03,0.021-0.035,0.085-0.07,0.13c-0.064,0.063-0.121,0.109-0.185,0.13c-0.138,0.034-0.148,0.128-0.276,0.166
	c-0.038,0.13-0.211,0.069-0.314,0.147c-0.048,0.028-0.13-0.016-0.174,0.04c-0.076,0.097-0.206,0.124-0.275,0.225
	c-0.123-0.05-0.192,0.081-0.31,0.091c-0.114,0.148-0.216,0.092-0.356,0.195c-0.102-0.129-0.155,0.106-0.257-0.022
	c-0.262,0.144-0.623,0.187-0.851,0.425c-0.397,0.053-0.617,0.219-1.03,0.278c-0.23-0.207-0.457,0.233-0.645,0.323
	c-0.038-0.037-0.063-0.053-0.11-0.037c-0.25,0.338-0.531-0.003-0.844,0.236c-0.16-0.145-0.448,0.074-0.505,0.025
	c-0.008-0.049-0.049-0.027-0.165,0.044c-0.054,0.028-0.113,0.039-0.127,0.103c-0.076-0.051-0.15,0.061-0.211-0.023
	c-0.11,0.067-0.088,0.174-0.235,0.186c-0.096-0.041-0.376-0.012-0.463,0.037c-0.622-0.061-0.389,0.164-0.637,0.101
	c0.015-0.028-0.154,0.019-0.139-0.01c-0.114-0.093-0.14,0.065-0.314,0.038c0,0-0.19,0.048-0.141-0.023
	c-0.021-0.039-0.127,0.007-0.154,0.004c-0.078-0.025-0.258-0.017-0.59-0.114c1.469-0.091,2.958-0.776,4.087-1.14
	c0.071-0.133,0.164-0.104,0.271-0.109c0.275-0.135,2.236-1.059,2.522-1.182c0.038-0.17,0.137,0.002,0.205-0.121
	c0.108-0.092,0.227-0.055,0.298-0.174c0.026-0.032,0.358-0.131,0.327-0.193c0.148-0.046,0.316-0.137,0.433-0.252
	c0.087-0.16,0.534-0.311,0.676-0.371c0.039-0.055,0.913-0.516,0.91-0.622c1.345-0.897,2.569-1.897,3.783-3.142
	c0.059-0.061,0.255-0.162,0.313-0.223c0.067-0.071,0.272-0.178,0.339-0.249c0.066-0.07-0.035-0.163,0.03-0.235
	c0.29-0.317,0.571-0.644,0.842-0.978c0.051-0.063,0.372-0.284,0.422-0.347c0.319-0.4,0.352-0.652,0.64-1.072s0.559-0.85,0.81-1.286
	c0.202-0.351,0.392-0.707,0.567-1.067c0.565-1.16,0.986-2.364,1.217-3.59c-0.638,1.389-1.47,2.725-2.373,3.945
	c-0.102,0.138-0.281,0.201-0.385,0.337c-0.099,0.128-0.122,0.327-0.222,0.452c-0.06,0.075-0.12,0.15-0.181,0.225
	c-1.589,1.953-4.751,4.177-5.78,4.901c-0.39,0.208-1.392,0.753-1.477,0.819c-0.083,0.068-0.176,0.184-0.288,0.188
	c-0.112,0.006-0.268,0.119-0.371,0.2c-0.133,0.07-0.504,0.19-0.968,0.348c0.684-0.39,1.584-0.938,2.149-1.527
	c-0.017-0.286-0.887,0.531-1.898,1.09c-0.193,0.093-0.412,0.231-0.602,0.317c-0.055-0.018-0.104,0.09-0.141,0.123
	c-0.135-0.057-0.37-0.013-0.454,0.066c-0.121-0.01-0.43,0.318-0.554,0.221c-0.255,0.096-0.5,0.186-0.757,0.28
	c-0.023-0.001-0.683,0.188-1.096,0.272c-0.034,0.014-0.06,0.024-0.094,0.037c-0.292,0.023-0.545,0.193-0.817,0.158
	c-0.128,0.044-0.319,0.035-0.443,0.104c-0.319,0.058-1.077,0.176-1.604,0.152c0.284-0.051,1.122-0.176,1.338-0.225
	c0.259-0.101,0.607-0.102,0.878-0.193c0.488-0.045,0.851-0.381,1.333-0.34c0.182-0.172,0.4-0.25,0.619-0.324
	c0.7-0.287,1.236-0.51,1.851-0.899c0.358-0.166,1.643-1.254,1.29-1.142c-0.399,0.209-1.067,0.701-1.25,0.729
	c-0.063,0.104-0.603,0.018-0.76,0.093c-0.144,0.014-0.131,0.243-0.273,0.305c-0.004,0.006-0.141,0.167-0.2,0.153
	c-0.181,0.152-0.367,0.164-0.551,0.301c-0.07-0.008-0.115-0.054-0.183-0.02c0.009,0.012,0.015,0.02,0.023,0.031
	c-0.039,0.031-0.083-0.008-0.122,0.023c-0.104,0.115-0.25,0.134-0.357,0.185c-0.032-0.137-0.092,0.05-0.16,0.025
	c-0.046-0.038-0.09-0.016-0.138,0.021c0.008,0.016,0.002,0.027-0.04,0.038c0-0.002,0-0.005,0-0.007
	c-0.04,0.033-0.075,0.063-0.121,0.071c-0.072-0.011-0.154,0.064-0.226,0.024c-0.055-0.027-0.267-0.037-0.339,0.02
	c-0.057,0.16-0.131,0.015-0.212,0.113c0.001,0.01-0.041,0.002-0.041,0.012c-0.046,0.032,0.001,0.012-0.042,0.004
	c-0.285,0.104-0.56,0.17-0.837,0.22c0,0,0-0.085-0.043-0.047c-0.024,0.001-0.037,0.024-0.028,0.054
	c-0.108,0.023-0.173-0.082-0.275,0.002c0.033-0.051-0.011-0.063-0.031-0.09c-0.452,0.232-0.454,0.068-0.85,0.166
	c-0.071-0.023-0.184,0.169-0.224,0.063c-0.185-0.006-0.375-0.02-0.638-0.092c0.476-0.071,1.9-0.4,2.142-0.493
	c-0.017,0.036,0.074,0.063,0.106,0.017c0-0.021,0.026-0.033,0.003-0.041c0.128-0.059,0.281-0.134,0.394-0.15
	c0.432-0.213,0.826-0.309,1.247-0.474c0.265-0.196,0.774-0.265,1.04-0.48c0.216-0.063,1.747-0.923,1.932-1.044
	c0.69-0.479,2.447-1.518,3.298-2.331c0.553-0.427,1.196-0.937,1.745-1.402c-0.018-0.021-0.03-0.034-0.048-0.054
	c0.192-0.31,0.607-0.626,0.953-0.966c0.191-0.239,0.374-0.475,0.563-0.729c-0.009-0.026-0.023-0.062-0.017-0.077
	c0.068-0.178,0.167-0.237,0.288-0.294c0.119-0.166,0.231-0.327,0.349-0.501c0.099-0.24,0.407-0.815,0.695-1.113
	c0.139-0.29,0.123-0.494,0.395-0.859c0.136-0.238,0.169-0.471,0.288-0.713c-0.02-0.016-0.04-0.026-0.039-0.043
	c0.02-0.142,0.102-0.22,0.204-0.307c0.07-0.154,0.143-0.5,0.208-0.656c0.03-0.188,0.039-0.761,0.25-1.074
	c0.994-5.811-1.314-9.479,0.691-12.103c0.258-0.267,0.019-0.526-0.215-0.644c0.018-0.316-0.129-0.543-0.198-0.825
	c0.103-0.339-0.231-0.812,0.261-1c-0.054-0.245,0.199-0.056,0.338-0.153c0.153-0.092,0.354-0.115,0.546-0.082
	c0.144-0.068,0.005-0.139,0.059-0.191c0.007-0.131,0.257-0.351,0.358-0.389c0.449-0.055,1.551,0.049,1.813,0.605
	c0.217,0.135,0.143,0.383,0.19,0.568c-0.177,0.153,0.572,0.518-0.096,1.117c0.812-0.024,1.682,0.76,2.042,1.565
	C35.285,17.449,35.474,19.053,35.734,21.326z"/>
<path style="fill:#1B9D6F;" d="M36.691,10.891c-1.224,0.123-3.662,0.189-5.405-0.563c-0.849-0.379-2.033-1.079-2.609-1.539
	c-0.236,0.224-0.134,0.596-0.21,0.889c-0.298,0.63-0.089,0.783-0.375,1.408c0.121,0.232-0.281,0.786-0.117,1.016
	c-0.152,0.588-0.401,1.373-0.698,1.973c-0.25,0.951-0.897,1.753-0.954,1.805c-0.64-0.049-0.705-0.574-1.045-0.905
	c-0.248-0.148-0.162-0.592-0.375-0.77c-0.334-1.485-0.281-2.15-0.132-3.058c0.232-1.206,0.811-2.387,1.606-3.684
	c-1.23-0.008-2.732-0.346-3.937-0.795c-0.15-0.097-0.474-0.176-0.484-0.428c-0.483-0.4-1.143-0.408-1.642-0.973
	c0.313-0.261,0.948-0.323,1.216-0.564c1.384-0.139,3.749,0.692,4.879,1.475l0.196,0.041c-0.328-2.62-0.24-4.534,0.972-6.188
	c0.277-0.196,0.558,0.616,0.577,0.923c0.173,0.443,0.327,0.866,0.441,1.199c0.039,0.734,0.659,1.897,0.379,3.096
	c1.246-1.43,1.685-2.284,5.128-4.238c0.597-0.172,0.135,2.813-0.502,3.369c-0.16,0.193,0.169,0.389-0.021,0.58
	c-0.044,0.15-0.327,0.334-0.18,0.556c-0.48,0.729-1.178,1.354-1.602,1.593l-0.401,0.258C32.445,7.623,34.93,7.655,36.691,10.891z"/>
<path style="fill:#FF1A00;" d="M18.327,13.797c-0.968,0.123-1.005-0.305-1.554-0.391c-0.333-0.332-0.642-0.623-0.565-1.213
	c0.116-0.431,0.217-0.633,0.2-1.002c0.103-0.369,0.44-0.747,0.764-1.094c0.186-0.122,0.387-0.334,0.415-0.504
	c0.611-0.462,1.111-0.736,1.767-0.959c1.549-0.418,1.718,0.393,2.119,0.346c0.607,0.645,0.549,1.467,0.105,2.422
	c0.021,0.258-0.339,0.531-0.491,0.798c-0.451,0.321-0.784,0.831-1.32,1.11C19.766,13.311,19.097,13.698,18.327,13.797z"/>
<path style="fill-rule:evenodd;clip-rule:evenodd;fill:#2166AC;" d="M18.027,31.123c-0.365,0.013-0.629,0.064-1.014,0.1
	c-0.245,0.035-0.49,0.035-0.752,0c-0.105-0.018-0.227,0-0.332,0.053c-0.228,0.07-0.525-0.039-0.752,0.014
	c-0.105,0.018-0.236,0.018-0.324,0.035c-0.087,0.035-0.191,0.023-0.297,0.035c-2.938,0.297-5.718,0.769-9.059,1.644
	C1,34.096-1.354,31.793,0.819,30.184c2.703-1.848,15.678-4.018,25.456-0.064c0.259,0.104,0.513,0.277-0.198,0.169
	c-0.346-0.053-0.363-0.001-0.538-0.021c-0.031-0.004-0.066-0.021-0.101-0.021c-0.082-0.023-0.175,0-0.268-0.012
	c-0.012,0-0.012-0.023-0.023-0.035c-0.023-0.035-0.059-0.003-0.082-0.038c-0.023-0.023-0.092,0.038-0.115,0.026
	c-0.105-0.012-0.188-0.035-0.293-0.07c-0.023-0.012-0.058-0.023-0.093-0.047c-0.035-0.023-0.07-0.012-0.105,0
	c-0.093,0.023-0.187,0.012-0.28,0c0,0-0.023-0.012-0.035-0.012c-0.152-0.035-0.35-0.012-0.501-0.035
	c-0.035-0.012-0.236-0.053-0.283-0.054c-0.533-0.019-0.234,0.208,0.13,0.259c0.084,0.012,0.319,0.067,0.586,0.143
	c0.268,0.075,1.598,0.357,0.37,0.341c-0.293-0.004-0.583,0-0.886-0.047c-0.035,0-0.082-0.022-0.117-0.034
	c-0.14-0.012-0.268,0.023-0.408,0.012c-0.012-0.012-0.035-0.023-0.047-0.023c-0.21-0.023-0.431,0-0.641-0.023
	c0-0.023-0.035,0-0.023-0.023c-0.058-0.023-0.128-0.035-0.187-0.023c-0.082,0.023-0.151,0.02-0.224,0.015
	c-0.245-0.018-0.673-0.026-0.959-0.078c-0.017-0.003-0.227-0.071-0.244-0.071c-0.14-0.018-0.169,0.07-0.309,0.018
	c-0.087-0.035-0.274-0.041-0.361-0.023c-0.07,0.018-0.656-0.027-0.711-0.029c-0.7-0.017-1.084,0.018-1.924,0.018
	c-0.175,0-0.332-0.018-0.507,0.018c-0.123,0.035-0.245,0-0.367,0.035c-0.157,0.035-0.295,0.057-0.455,0.079
	c-0.169,0.022-0.507,0.21,0.157,0.228c0.045,0.002,0.149,0.025,0.192,0.035c0.087,0.018,0.166-0.01,0.253,0.018
	c0.009,0,0.035,0,0.044,0.008c0.018,0.026,0.052,0.01,0.079,0.035c0.157,0,0.307-0.016,0.463,0
	C17.686,30.896,18.77,31.097,18.027,31.123z"/>
<path style="fill:#666666;" d="M59.017,22.848c0.086-0.033,0.178-0.033,0.278,0c0.071,0.017,0.182,0.037,0.332,0.063
	c0.15,0.024,0.396-0.013,0.739-0.112c0.028-0.38,0.057-0.79,0.085-1.229c0.028-0.439,0.064-0.865,0.107-1.279
	c0.071-0.579,0.143-1.112,0.214-1.601s0.136-0.874,0.193-1.156c0.042-0.248,0.024-0.347-0.054-0.297
	c-0.079,0.05-0.154,0.116-0.225,0.198c-0.1,0.116-0.146,0.125-0.139,0.025c0.007-0.1,0.225-0.63,0.653-1.59
	c-0.899-0.198-1.42-0.256-1.563-0.173c-0.143,0.082-0.207,0.165-0.192,0.248c0,0.066-0.028,0.104-0.086,0.111
	c-0.057,0.008-0.271-0.063-0.642-0.211c-1.341-0.1-2.063-0.104-2.162-0.013c-0.1,0.092-0.1,0.187,0,0.285
	c0.1,0.083,0.057,0.125-0.128,0.125c-0.185,0-0.97-0.132-2.354-0.397c-1.042,0.166-1.687,0.252-1.937,0.261
	s-0.439-0.013-0.567-0.063c-0.1-0.032-0.257-0.07-0.471-0.111c-0.214-0.042-0.678-0.037-1.391,0.013
	c-0.314,0.066-0.567,0.086-0.76,0.062c-0.193-0.024-0.375-0.062-0.545-0.112c-0.186-0.049-0.403-0.09-0.653-0.123
	c-0.25-0.033-0.603-0.009-1.06,0.074c-0.058,0.514-0.071,0.811-0.043,0.895c0.028,0.082,0.071,0.115,0.128,0.099
	s0.104,0.024,0.139,0.124s0.018,0.464-0.053,1.093c1.141,0.116,1.787,0.161,1.937,0.136c0.15-0.024,0.203-0.069,0.161-0.136
	c-0.028-0.066,0.011-0.12,0.118-0.161s0.596-0.037,1.466,0.012c0.941-0.231,1.466-0.314,1.573-0.248
	c0.106,0.066,0.125,0.166,0.053,0.298c-0.071,0.133-0.036,0.231,0.107,0.298c0.143,0.066,0.799-0.058,1.969-0.372
	c0.371,0.017,0.642,0.024,0.813,0.024s0.321,0,0.45,0c0.157-0.016,0.325-0.024,0.503-0.024s0.489,0.024,0.931,0.074
	c-0.014,0.216,0.021,0.315,0.107,0.298c0.085-0.016,0.164-0.049,0.235-0.1c0.085-0.082,0.128-0.091,0.128-0.024
	s-0.136,0.405-0.407,1.019c-0.028,0.463-0.021,0.901,0.021,1.315c0.042,0.413,0.085,0.77,0.128,1.067
	c0.057,0.332,0.085,0.58,0.085,0.746c0,0.165-0.078,0.215-0.235,0.148c0.085,0.298,0.132,0.472,0.139,0.521
	c0.007,0.05-0.003,0.074-0.032,0.074c-0.015,0-0.026,0.029-0.033,0.087s0.033,0.261,0.118,0.608c0.428-0.049,0.67-0.104,0.727-0.161
	s0.072-0.104,0.043-0.137c-0.014-0.033-0.003-0.062,0.032-0.087s0.189-0.029,0.46-0.013C58.746,23.038,58.932,22.881,59.017,22.848z
	 M45.588,26.213c0.363-0.075,0.681-0.146,0.952-0.211c0.242-0.084,0.435-0.133,0.578-0.15c0.143-0.016,0.2,0.059,0.171,0.225
	c1.626,0.115,2.572,0.165,2.835,0.148c0.264-0.016,0.389-0.049,0.375-0.1c-0.015-0.049,0.1-0.095,0.342-0.137
	c0.242-0.041,1.12-0.028,2.632,0.037c3.667-0.215,5.857-0.285,6.57-0.211s1.099,0.154,1.156,0.236c0.042,0.066,0.171,0.1,0.385,0.1
	s0.906-0.083,2.076-0.248c-0.143-0.365-0.21-0.613-0.204-0.745c0.007-0.133,0.04-0.24,0.097-0.323
	c0.043-0.082,0.079-0.174,0.107-0.273c0.028-0.099,0.014-0.256-0.042-0.471c-0.913-0.133-1.87-0.158-2.868-0.074
	c-0.999,0.082-1.883,0.173-2.654,0.271c-0.685,0.084-1.224,0.137-1.616,0.162s-0.531-0.062-0.417-0.262
	c-1.984,0.184-3.146,0.283-3.489,0.299c-0.342,0.017-0.542-0.008-0.599-0.074s-0.339-0.137-0.846-0.211
	c-0.506-0.074-2.044-0.078-4.612-0.014c-0.171-0.016-0.328-0.027-0.471-0.036c-0.143-0.008-0.278-0.021-0.407-0.037
	c-0.414-0.066-0.735-0.108-0.963-0.124c-0.229-0.017-0.442,0.008-0.642,0.074c0.114,0.414,0.178,0.691,0.192,0.832
	s0.014,0.252,0,0.335s-0.014,0.179,0,0.286s0.093,0.326,0.236,0.658C44.85,26.274,45.224,26.287,45.588,26.213z M58.953,20.266
	c0.171,0.265,0.278,0.476,0.321,0.633s-0.093,0.228-0.407,0.211c-0.628,0.199-0.806-0.016-0.535-0.646
	c0.271-0.628,0.478-0.712,0.621-0.249V20.266z M48.103,36.578c0,0.1-0.036,0.092-0.107-0.023c-0.071-0.084-0.125-0.121-0.16-0.112
	c-0.036,0.008,0.018,0.302,0.16,0.882c0.557,0.115,0.917,0.174,1.081,0.174c0.164,0,0.317-0.018,0.46-0.051
	c0.114-0.033,0.282-0.066,0.503-0.099c0.221-0.034,0.596-0.042,1.124-0.024c1.983,0.115,3.085,0.145,3.307,0.086
	c0.221-0.058,0.289-0.119,0.204-0.186c-0.072-0.051,0.006-0.07,0.235-0.063s1.127,0.104,2.697,0.285
	c0.727,0.083,1.176,0.1,1.348,0.051c0.171-0.051,0.285-0.108,0.342-0.174c0.029-0.033,0.082-0.063,0.16-0.088
	c0.079-0.024,0.253-0.004,0.525,0.063c0.228-1.324,0.31-2.049,0.246-2.172c-0.064-0.125-0.146-0.146-0.246-0.063
	c-0.1,0.1-0.146,0.045-0.14-0.162c0.007-0.207,0.204-1.104,0.589-2.693c-0.085-0.777-0.122-1.254-0.107-1.428
	s0.043-0.294,0.086-0.36c0.043-0.05,0.085-0.157,0.128-0.322c0.042-0.166,0.05-0.597,0.021-1.292
	c-0.942-0.198-1.68-0.235-2.215-0.111c-0.535,0.125-0.924,0.244-1.167,0.359c-0.186,0.066-0.304,0.096-0.354,0.088
	s-0.068-0.145-0.053-0.41c-1.241,0.166-1.958,0.248-2.151,0.248s-0.275-0.033-0.246-0.099c0.028-0.066-0.097-0.133-0.375-0.199
	c-0.278-0.066-1.366-0.033-3.264,0.1c-0.414,0.083-0.778,0.112-1.092,0.087c-0.313-0.025-0.613-0.07-0.898-0.137
	c-0.243-0.049-0.496-0.091-0.76-0.124c-0.264-0.033-0.574-0.024-0.931,0.024c-0.014,0.282,0.021,0.514,0.107,0.695
	c0.086,0.182,0.157,0.34,0.214,0.473c0.071,0.115,0.114,0.219,0.128,0.31c0.014,0.092-0.064,0.179-0.236,0.261
	c0.014,0.53,0.061,1.01,0.14,1.44c0.078,0.431,0.153,0.812,0.224,1.142c0.114,0.432,0.186,0.808,0.214,1.131
	c0.028,0.322-0.05,0.6-0.236,0.831C47.938,35.924,48.103,36.479,48.103,36.578z M51.826,30.371c0.186-0.016,0.357-0.033,0.514-0.05
	c0.171-0.033,0.346-0.054,0.524-0.062s0.381,0.029,0.61,0.111c0.485,0.083,0.881,0.107,1.188,0.074
	c0.307-0.033,0.574-0.074,0.802-0.124c0.2-0.033,0.382-0.054,0.546-0.062s0.325,0.054,0.481,0.186
	c0.086,1.309,0.107,2.049,0.064,2.223c-0.042,0.174-0.1,0.229-0.171,0.162s-0.132,0-0.182,0.198
	c-0.05,0.198-0.025,1.075,0.075,2.632c-1.512,0.148-2.376,0.219-2.59,0.211s-0.292-0.045-0.235-0.111
	c0.071-0.066,0.046-0.129-0.075-0.187c-0.122-0.058-0.746-0.071-1.873-0.038c0.042-1.025,0.042-1.65,0-1.874
	c-0.043-0.224-0.1-0.368-0.171-0.435s-0.132-0.235-0.182-0.509c-0.05-0.273-0.04-1.08,0.032-2.421
	C51.427,30.363,51.641,30.388,51.826,30.371z"/>
<path style="fill:#666666;" d="M71.899,23.574c-0.085,0.033-0.179,0.133-0.278,0.298c-0.1,0.165-0.3,0.629-0.6,1.391
	c-0.97,0.563-1.498,0.89-1.583,0.981c-0.086,0.091-0.057,0.128,0.085,0.111c0.128,0,0.235,0.029,0.321,0.087
	c0.086,0.058-0.057,0.269-0.428,0.633c-0.571,0.364-0.889,0.584-0.953,0.658c-0.064,0.075-0.067,0.12-0.01,0.137
	c0.071,0.017,0.085,0.083,0.042,0.198c-0.042,0.116-0.407,0.447-1.091,0.994c-0.343-0.216-0.56-0.323-0.653-0.323
	s-0.161,0.017-0.203,0.05c-0.057,0.033-0.146,0.045-0.268,0.037s-0.417-0.145-0.888-0.41c0.371-0.762,0.617-1.217,0.738-1.365
	c0.122-0.148,0.211-0.232,0.268-0.248c0.071-0.033,0.168-0.141,0.289-0.323s0.381-0.778,0.781-1.788
	c0.756-0.712,1.155-1.121,1.198-1.229c0.042-0.107-0.014-0.152-0.171-0.137c-0.143,0-0.25-0.055-0.321-0.162
	c-0.072-0.107,0.149-0.483,0.664-1.129c0.157-0.365,0.263-0.559,0.321-0.584c0.057-0.025,0.1-0.021,0.128,0.012
	c0.029,0.034,0.075,0.005,0.139-0.086c0.064-0.092,0.21-0.492,0.438-1.205c0.585-0.728,0.902-1.154,0.953-1.278
	c0.05-0.124,0.018-0.178-0.096-0.161c-0.086,0.017-0.175,0.017-0.268,0c-0.092-0.017-0.132-0.133-0.117-0.348
	c0.185-0.48,0.334-0.781,0.449-0.906c0.114-0.124,0.2-0.211,0.257-0.261c0.085-0.05,0.15-0.141,0.192-0.273
	c0.042-0.132,0.085-0.529,0.129-1.191c1.44,0.812,2.225,1.319,2.354,1.526c0.128,0.207,0.143,0.336,0.043,0.386
	c-0.072,0.032-0.05,0.095,0.064,0.187c0.114,0.09,0.642,0.343,1.583,0.756c-0.143,0.266-0.303,0.493-0.481,0.684
	c-0.179,0.19-0.346,0.36-0.503,0.51c-0.2,0.165-0.36,0.33-0.481,0.496c-0.122,0.166-0.153,0.364-0.096,0.596
	c-0.057,0.082-0.118,0.162-0.182,0.236s-0.132,0.152-0.203,0.235c-0.086,0.083-0.171,0.161-0.257,0.235
	c-0.085,0.075-0.171,0.146-0.256,0.211c0.328,0.348,0.517,0.551,0.567,0.609c0.05,0.058,0.082,0.078,0.097,0.063
	c0.014-0.017,0.053-0.009,0.117,0.024c0.064,0.033,0.253,0.174,0.567,0.422c0.457,0.281,0.703,0.479,0.738,0.597
	c0.036,0.115,0.04,0.198,0.011,0.248c-0.029,0.033-0.014,0.058,0.043,0.074s0.278,0.066,0.664,0.148
	c0.414,0.414,0.66,0.65,0.738,0.708s0.125,0.07,0.139,0.037c0.028-0.05,0.107-0.065,0.235-0.05c0.128,0.018,0.478,0.24,1.048,0.67
	c-0.57,0.795-0.888,1.258-0.952,1.391s-0.068,0.199-0.01,0.199c0.057-0.016,0.063,0.059,0.021,0.224
	c-0.043,0.166-0.399,0.77-1.07,1.813c-0.485-1.026-0.764-1.598-0.835-1.714c-0.071-0.115-0.1-0.107-0.085,0.025
	c0.014,0.115-0.003,0.194-0.053,0.236c-0.05,0.041-0.282-0.27-0.696-0.932c-0.328-0.777-0.524-1.204-0.589-1.279
	c-0.064-0.074-0.104-0.062-0.118,0.037c-0.014,0.1-0.054,0.154-0.118,0.162s-0.268-0.285-0.61-0.882
	c-0.128-0.165-0.243-0.306-0.342-0.422c-0.1-0.115-0.186-0.215-0.257-0.298c-0.057-0.083-0.114-0.153-0.171-0.211
	C71.97,23.652,71.928,23.607,71.899,23.574z M82.835,37.404c-0.799,0.066-1.316,0.074-1.552,0.025
	c-0.235-0.05-0.41-0.107-0.524-0.174c-0.1-0.083-0.25-0.137-0.45-0.161c-0.2-0.026-0.67,0.028-1.412,0.161
	c-0.742,0.132-1.174,0.203-1.295,0.211c-0.122,0.008-0.175-0.004-0.161-0.037c0.014-0.033-0.043-0.071-0.171-0.111
	c-0.128-0.042-0.614-0.029-1.455,0.037c-0.442,0.032-0.735,0.02-0.877-0.038s-0.25-0.12-0.321-0.186
	c-0.072-0.083-0.168-0.12-0.289-0.112s-0.432,0.129-0.931,0.36c-0.7-0.116-1.203-0.157-1.509-0.124s-0.546,0.082-0.717,0.148
	c-0.085,0.017-0.171,0.037-0.257,0.063c-0.086,0.024-0.186,0.029-0.3,0.012c-0.242-0.662-0.349-1.025-0.321-1.092
	c0.029-0.066,0.079-0.074,0.15-0.025c0.086,0.05,0.135,0.029,0.15-0.063c0.014-0.09-0.136-0.517-0.45-1.277
	c0.071-0.133,0.089-0.299,0.054-0.497c-0.036-0.199-0.104-0.455-0.203-0.77c-0.1-0.381-0.214-0.845-0.343-1.391
	s-0.207-1.225-0.235-2.036c0.827-0.016,1.309-0.025,1.445-0.025c0.135,0,0.225,0.025,0.267,0.075
	c0.029,0.033,0.089,0.079,0.182,0.137s0.311,0.136,0.653,0.235c0.271,0.033,0.445,0.041,0.524,0.025
	c0.079-0.017,0.139-0.033,0.183-0.051c0.057-0.033,0.152-0.049,0.289-0.049c0.135,0,0.489,0.066,1.059,0.199
	c0.043,0.927,0.054,1.447,0.032,1.564c-0.021,0.115-0.054,0.141-0.096,0.074c-0.057-0.066-0.104-0.046-0.139,0.062
	c-0.036,0.107-0.046,0.675-0.032,1.701c0.071,0.446,0.125,0.694,0.16,0.745c0.036,0.049,0.061,0.058,0.075,0.024
	c0.029-0.033,0.057-0.024,0.086,0.024c0.028,0.049,0.071,0.281,0.128,0.695c0.285,0,0.506-0.012,0.663-0.037s0.3-0.045,0.428-0.063
	c0.157-0.033,0.346-0.058,0.567-0.074c0.221-0.017,0.589-0.008,1.103,0.025c0.171,0.148,0.313,0.219,0.428,0.211
	c0.114-0.009,0.228-0.029,0.342-0.063c0.1-0.033,0.207-0.062,0.321-0.086c0.114-0.025,0.243-0.021,0.386,0.012
	c0.514,0.066,0.842,0.074,0.984,0.025c0.143-0.051,0.25-0.117,0.321-0.199c0.1-0.116,0.31-0.215,0.631-0.298
	c0.321-0.083,1.167-0.033,2.537,0.148c-0.129,0.248-0.189,0.451-0.182,0.608s0.025,0.318,0.053,0.484
	c0.029,0.115,0.054,0.248,0.075,0.397C82.91,37.007,82.892,37.189,82.835,37.404z M82.043,21.836
	c0.243,0.017,0.489,0.021,0.739,0.013c0.25-0.008,0.453-0.046,0.61-0.112c0.542,0,0.842-0.02,0.898-0.062
	c0.057-0.041,0.064-0.087,0.022-0.137c-0.043-0.05-0.025-0.091,0.054-0.124c0.078-0.033,0.467-0.033,1.166,0
	c-0.214,0.943-0.325,1.506-0.332,1.688s0.018,0.298,0.075,0.348c0.042,0.032,0.082,0.091,0.118,0.174
	c0.035,0.083,0.046,0.272,0.032,0.57c-0.699-0.065-1.103-0.128-1.209-0.186s-0.16-0.104-0.16-0.137s-0.054-0.058-0.161-0.074
	c-0.107-0.017-0.474-0.024-1.102-0.024c-0.057-0.033-0.114-0.063-0.171-0.088c-0.057-0.024-0.114-0.037-0.171-0.037h-0.3
	c-0.1,0.53-0.143,1.039-0.129,1.527s0.029,0.956,0.043,1.402c0.014,0.232,0.024,0.46,0.032,0.684s0.003,0.443-0.011,0.657
	c-0.014,0.249-0.036,0.439-0.064,0.571c-0.029,0.133-0.057,0.249-0.086,0.348c-0.042,0.166-0.071,0.356-0.085,0.572
	c-0.014,0.215,0.014,0.629,0.085,1.24c-0.1,0.166-0.164,0.257-0.192,0.273c-0.028,0.017-0.05,0.017-0.064,0
	c-0.015-0.033-0.05-0.041-0.107-0.024s-0.171,0.132-0.342,0.347c-0.357,0.084-0.585,0.158-0.686,0.225
	c-0.1,0.066-0.178,0.132-0.235,0.198c-0.057,0.066-0.15,0.142-0.278,0.224c-0.128,0.082-0.385,0.182-0.771,0.298
	c-0.1-0.48-0.143-0.902-0.128-1.267c0.014-0.363,0.036-0.687,0.064-0.969c0.029-0.281,0.043-0.521,0.043-0.72
	c0-0.198-0.079-0.356-0.235-0.472c0.314-0.679,0.464-1.055,0.449-1.13c-0.014-0.074-0.071-0.079-0.171-0.013
	c-0.072,0.033-0.132,0.046-0.182,0.038c-0.05-0.009-0.046-0.137,0.011-0.386c0.042-0.563,0.036-1.191-0.021-1.887
	s-0.121-1.407-0.192-2.135c-0.057-0.497-0.107-0.994-0.15-1.49c-0.042-0.496-0.078-0.977-0.107-1.439
	c0.029-0.299,0.05-0.535,0.064-0.709c0.014-0.174,0.028-0.31,0.043-0.409c0.028-0.248,0.035-0.451,0.021-0.608
	c-0.014-0.157-0.057-0.684-0.129-1.576c0.029-0.713,0.036-1.109,0.021-1.192s-0.036-0.083-0.064,0
	c-0.028,0.066-0.064,0.075-0.107,0.024c-0.043-0.049-0.079-0.479-0.107-1.291c0.414-0.049,0.66-0.063,0.738-0.037
	s0.125,0.063,0.139,0.111c0.014,0.033,0.054,0.066,0.118,0.1s0.253,0.042,0.567,0.025c0.528-0.033,0.871-0.029,1.027,0.012
	c0.157,0.042,0.271,0.088,0.342,0.137c0.071,0.051,0.189,0.088,0.353,0.111c0.165,0.025,0.553,0.005,1.167-0.061
	c-0.1,0.563-0.161,0.902-0.182,1.018c-0.022,0.115-0.025,0.281-0.011,0.496c0,0.083,0,0.19,0,0.323c0,0.132-0.007,0.314-0.021,0.546
	c-0.357,0.762-0.521,1.172-0.492,1.229c0.029,0.059,0.093,0.046,0.193-0.037c0.071-0.066,0.135-0.104,0.192-0.111
	s0.05,0.104-0.021,0.335c-0.057,0.712-0.114,1.246-0.171,1.603c-0.058,0.355-0.114,0.648-0.171,0.881
	c-0.015,0.115-0.032,0.219-0.054,0.311S82.058,21.736,82.043,21.836z M80.353,25.834c-0.143-0.463-0.339-0.377-0.589,0.261
	c-0.25,0.638-0.082,0.849,0.503,0.633c0.314,0.017,0.449-0.054,0.407-0.211c-0.043-0.157-0.15-0.368-0.321-0.634V25.834z"/>
<path style="fill:#666666;" d="M95.795,27.094c0.05,0.115,0.103,0.232,0.16,0.348c0.171,0.331,0.268,0.571,0.29,0.721
	c0.021,0.148-0.197,0.049-0.653-0.299c0.029,0.662,0.061,1.154,0.096,1.478s0.068,0.592,0.097,0.807
	c0.029,0.282,0.053,0.593,0.075,0.931c0.021,0.34,0.018,1.023-0.011,2.049c0.927-0.099,1.48-0.186,1.659-0.26
	c0.179-0.074,0.275-0.146,0.289-0.212c0.028-0.083,0.11-0.173,0.246-0.272c0.136-0.1,0.56-0.232,1.273-0.397
	c0.015-0.231-0.003-0.423-0.053-0.571s-0.104-0.281-0.161-0.397c-0.071-0.165-0.11-0.31-0.118-0.435
	c-0.007-0.124,0.118-0.269,0.375-0.435c-0.057-0.646-0.057-1.108,0-1.39s0.122-0.521,0.192-0.721
	c0.071-0.166,0.125-0.348,0.161-0.546c0.035-0.198,0.039-0.489,0.011-0.869c1.997-0.066,3.195-0.054,3.595,0.037
	c0.4,0.091,0.621,0.179,0.664,0.261c0.043,0.066,0.171,0.104,0.385,0.111c0.214,0.009,0.906-0.07,2.076-0.235
	c-0.143-0.364-0.21-0.617-0.203-0.757c0.007-0.141,0.039-0.262,0.096-0.361c0.042-0.082,0.079-0.174,0.107-0.272
	c0.029-0.1,0.015-0.257-0.042-0.472c-0.914-0.148-1.866-0.182-2.857-0.1c-0.992,0.083-1.866,0.166-2.622,0.248
	c-0.685,0.083-1.22,0.133-1.605,0.149c-0.385,0.017-0.521-0.074-0.406-0.272c-1.983,0.182-3.15,0.277-3.5,0.285
	s-0.56-0.021-0.631-0.087c-0.057-0.066-0.343-0.137-0.856-0.212c-0.513-0.073-2.055-0.086-4.622-0.037
	c-0.171-0.016-0.329-0.028-0.472-0.037c-0.143-0.008-0.278-0.021-0.406-0.037c-0.414-0.066-0.734-0.107-0.963-0.124
	s-0.442,0.009-0.642,0.074c0.114,0.414,0.178,0.69,0.192,0.832c0.014,0.141,0.014,0.253,0,0.335c-0.014,0.084-0.014,0.179,0,0.286
	s0.093,0.327,0.235,0.657c0.385,0.1,0.76,0.112,1.124,0.038c0.364-0.075,0.681-0.146,0.952-0.212
	c0.242-0.082,0.435-0.132,0.578-0.148c0.143-0.017,0.2,0.058,0.171,0.224c1.641,0.116,2.593,0.165,2.857,0.149
	c0.264-0.018,0.389-0.05,0.375-0.1c-0.015-0.05,0.074-0.092,0.267-0.125c0.192-0.033,0.881-0.024,2.065,0.025
	C95.691,26.862,95.745,26.979,95.795,27.094z M101.509,35.213c-0.321,0.083-0.532,0.182-0.631,0.298
	c-0.072,0.083-0.178,0.149-0.321,0.199c-0.143,0.05-0.471,0.041-0.984-0.024c-0.143-0.034-0.275-0.038-0.396-0.013
	c-0.122,0.024-0.239,0.054-0.354,0.087c-0.157,0.032-0.31,0.053-0.46,0.062s-0.311-0.062-0.481-0.211
	c-0.528-0.032-0.938-0.042-1.23-0.024c-0.292,0.016-0.56,0.041-0.803,0.074c-0.171,0.017-0.353,0.037-0.546,0.063
	c-0.192,0.024-0.432,0.037-0.717,0.037c-0.057-0.414-0.1-0.646-0.128-0.695c-0.028-0.05-0.057-0.059-0.085-0.025
	c-0.015,0.033-0.04,0.025-0.075-0.024s-0.089-0.298-0.16-0.745c-0.014-1.025-0.003-1.594,0.032-1.7
	c0.035-0.108,0.082-0.129,0.139-0.063c0.043,0.065,0.075,0.042,0.097-0.074c0.021-0.116,0.01-0.638-0.032-1.564
	c-0.571-0.133-0.924-0.199-1.06-0.199s-0.231,0.017-0.289,0.05c-0.043,0.018-0.104,0.033-0.182,0.05s-0.253,0.009-0.524-0.024
	c-0.343-0.1-0.561-0.178-0.653-0.236c-0.093-0.058-0.153-0.104-0.182-0.137c-0.043-0.049-0.132-0.074-0.268-0.074
	c-0.136,0-0.617,0.009-1.444,0.024c0.028,0.812,0.106,1.49,0.235,2.036c0.128,0.547,0.243,1.01,0.343,1.391
	c0.1,0.314,0.167,0.57,0.203,0.77s0.018,0.364-0.053,0.497c0.314,0.761,0.463,1.188,0.449,1.278s-0.064,0.111-0.15,0.063
	c-0.071-0.05-0.121-0.041-0.15,0.025c-0.028,0.065,0.079,0.43,0.321,1.092c0.114,0.017,0.214,0.012,0.299-0.013
	c0.086-0.024,0.171-0.046,0.257-0.062c0.171-0.066,0.411-0.116,0.717-0.149c0.307-0.032,0.81,0.009,1.509,0.124
	c0.499-0.231,0.813-0.352,0.941-0.359c0.128-0.009,0.242,0.028,0.342,0.111c0.072,0.066,0.186,0.128,0.343,0.186
	c0.157,0.059,0.449,0.07,0.877,0.038c0.799-0.05,1.309-0.063,1.53-0.037c0.221,0.024,0.36,0.054,0.417,0.087
	c0.071,0.033,0.192,0.049,0.364,0.049c0.171,0,0.649-0.066,1.434-0.198c0.742-0.132,1.212-0.187,1.413-0.161
	c0.2,0.025,0.35,0.078,0.45,0.161c0.114,0.066,0.289,0.124,0.524,0.174s0.752,0.042,1.552-0.024
	c0.057-0.215,0.075-0.397,0.054-0.547c-0.022-0.148-0.046-0.281-0.075-0.396c-0.028-0.166-0.046-0.328-0.054-0.484
	c-0.007-0.158,0.054-0.36,0.182-0.609C102.675,35.18,101.83,35.131,101.509,35.213z M101.819,23.208
	c0.085-0.042,0.178-0.046,0.278-0.013c0.071,0.017,0.186,0.033,0.342,0.049c0.157,0.018,0.399-0.023,0.728-0.123
	c0.085-0.777,0.125-1.279,0.118-1.502c-0.007-0.224-0.025-0.369-0.053-0.436c-0.015-0.082-0.003-0.26,0.032-0.533
	c0.036-0.273,0.196-1.097,0.482-2.471c0.071-0.414,0.079-0.604,0.021-0.571c-0.057,0.033-0.122,0.092-0.192,0.174
	c-0.085,0.116-0.122,0.108-0.107-0.024s0.193-0.762,0.536-1.888c-0.899-0.198-1.42-0.256-1.563-0.173
	c-0.143,0.082-0.207,0.165-0.192,0.248c0,0.066-0.029,0.104-0.086,0.111s-0.271-0.063-0.642-0.211
	c-1.356-0.1-2.08-0.107-2.173-0.025c-0.093,0.083-0.089,0.166,0.011,0.249c0.1,0.066,0.053,0.095-0.139,0.087
	c-0.193-0.008-0.974-0.145-2.344-0.41c-1.042,0.166-1.688,0.257-1.937,0.273s-0.438,0.008-0.567-0.025
	c-0.1-0.033-0.261-0.062-0.481-0.087c-0.221-0.024-0.682-0.012-1.38,0.038c-0.314,0.066-0.567,0.086-0.76,0.062
	c-0.193-0.024-0.375-0.062-0.546-0.112c-0.185-0.049-0.403-0.09-0.652-0.123c-0.25-0.033-0.603-0.009-1.06,0.074
	c-0.058,0.514-0.072,0.815-0.043,0.906c0.028,0.092,0.071,0.137,0.128,0.137c0.057-0.017,0.104,0.025,0.139,0.124
	c0.036,0.1,0.018,0.464-0.054,1.093c1.141,0.115,1.787,0.157,1.937,0.124s0.203-0.083,0.161-0.149
	c-0.029-0.066,0.01-0.124,0.118-0.174c0.107-0.049,0.596-0.049,1.466,0c0.942-0.231,1.466-0.314,1.573-0.248
	c0.106,0.066,0.125,0.166,0.053,0.298c-0.071,0.133-0.036,0.231,0.107,0.298s0.799-0.058,1.969-0.372
	c0.371,0.017,0.642,0.024,0.813,0.024s0.321,0,0.45,0c0.157-0.016,0.325-0.024,0.503-0.024s0.488,0.024,0.931,0.074
	c0,0.265,0.053,0.39,0.161,0.372c0.107-0.016,0.196-0.049,0.268-0.099c0.1-0.067,0.143-0.062,0.128,0.013
	c-0.014,0.074-0.171,0.418-0.47,1.029c-0.029,0.465-0.029,0.907,0,1.33c0.028,0.422,0.057,0.781,0.085,1.079
	c0.042,0.331,0.064,0.579,0.064,0.745s-0.064,0.215-0.192,0.148c0.114,0.365,0.171,0.584,0.171,0.658s-0.014,0.12-0.043,0.137
	c-0.015,0.017-0.025,0.058-0.032,0.124s0.025,0.266,0.096,0.597c0.428-0.051,0.671-0.104,0.728-0.162
	c0.057-0.059,0.071-0.104,0.042-0.137c-0.015-0.033-0.003-0.063,0.032-0.087s0.189-0.028,0.46-0.013
	C101.541,23.41,101.733,23.249,101.819,23.208z M102.012,19.818c0.171,0.266,0.278,0.477,0.321,0.633
	c0.042,0.158-0.093,0.229-0.407,0.211c-0.457,0.066-0.6-0.16-0.428-0.682s0.342-0.593,0.514-0.212V19.818z"/>
</svg>
