<?xml version="1.0" encoding="utf-8"?>
<!-- Generator: Adobe Illustrator 16.0.0, SVG Export Plug-In . SVG Version: 6.00 Build 0)  -->
<!DOCTYPE svg PUBLIC "-//W3C//DTD SVG 1.1//EN" "http://www.w3.org/Graphics/SVG/1.1/DTD/svg11.dtd">
<svg version="1.1" xmlns="http://www.w3.org/2000/svg" xmlns:xlink="http://www.w3.org/1999/xlink" x="0px" y="0px"
	 width="93.432px" height="63.197px" viewBox="0 0 93.432 63.197" enable-background="new 0 0 93.432 63.197" xml:space="preserve">
<g id="Layer_2">
</g>
<g id="Layer_1">
	<g>
		<defs>
			<rect id="SVGID_1_" y="0" width="93.432" height="63.197"/>
		</defs>
		<clipPath id="SVGID_2_">
			<use xlink:href="#SVGID_1_"  overflow="visible"/>
		</clipPath>
		<path clip-path="url(#SVGID_2_)" fill="#7DC242" d="M74.691,0c-2.674,0-3.945,0.693-5.262,3.129l-3.195,5.879h-0.094
			c-0.539-2.305-1.508-4.557-2.992-5.985C60.918,0.885,57.99,0,54.535,0h-8.899c5.643,2.402,10.258,9.211,10.258,16.777
			c0,6.28-3.168,11.571-7.795,14.02c2.086,1.724,4.533,2.846,7.211,2.846c6.854,0,11.578-4.021,15.197-10.501
			C81.953,2.65,83.525,0,83.525,0H74.691z"/>
		<path clip-path="url(#SVGID_2_)" fill="#006940" d="M39.725,17.051c0-6.346,3.217-11.813,7.842-14.289
			C45.477,1.018,42.982,0,40.305,0c-5.834,0-10.791,4.811-12.582,11.496h-0.152V3.701c0-1.293-0.016-2.07-0.614-2.67
			c-0.601-0.597-1.404-0.613-2.699-0.613h-9.125v33.598h9.125c1.295,0,2.098-0.018,2.699-0.615c0.598-0.598,0.614-1.376,0.614-2.667
			v-8.215h0.152c1.791,6.687,6.748,11.498,12.582,11.498h9.922v-0.041C44.446,31.549,39.725,24.682,39.725,17.051"/>
		<polygon clip-path="url(#SVGID_2_)" fill="#FFFFFF" points="1.398,58.805 2.253,58.805 2.253,60.662 3.794,58.805 4.845,58.805 
			3.093,60.842 4.921,63.127 3.8,63.127 2.268,61.121 2.253,61.121 2.253,63.127 1.398,63.127 		"/>
		<path clip-path="url(#SVGID_2_)" fill="#FFFFFF" d="M5.693,59.336c0.365-0.404,0.881-0.605,1.543-0.605
			c0.334,0,0.625,0.057,0.891,0.164C8.382,59,8.605,59.152,8.779,59.352c0.18,0.197,0.314,0.434,0.41,0.705
			c0.092,0.271,0.141,0.572,0.141,0.896c0,0.328-0.045,0.629-0.139,0.902C9.1,62.129,8.964,62.367,8.788,62.57
			c-0.174,0.199-0.397,0.355-0.655,0.465c-0.263,0.111-0.56,0.162-0.896,0.162c-0.668,0-1.184-0.203-1.547-0.611
			c-0.361-0.408-0.541-0.953-0.541-1.633C5.148,60.275,5.329,59.74,5.693,59.336 M6.107,61.533c0.045,0.187,0.115,0.352,0.211,0.502
			s0.219,0.268,0.373,0.353c0.15,0.084,0.334,0.13,0.545,0.13c0.215,0,0.394-0.046,0.549-0.13c0.154-0.085,0.277-0.202,0.371-0.353
			c0.097-0.15,0.17-0.315,0.215-0.502c0.045-0.187,0.064-0.375,0.064-0.58c0-0.197-0.021-0.391-0.068-0.572
			c-0.047-0.184-0.119-0.348-0.219-0.494c-0.098-0.146-0.223-0.262-0.373-0.346c-0.154-0.084-0.336-0.131-0.539-0.131
			c-0.205,0-0.381,0.047-0.529,0.131c-0.157,0.084-0.282,0.199-0.381,0.347c-0.096,0.147-0.168,0.317-0.217,0.497
			c-0.045,0.178-0.07,0.371-0.07,0.568C6.04,61.158,6.062,61.347,6.107,61.533"/>
		<polygon clip-path="url(#SVGID_2_)" fill="#FFFFFF" points="9.947,58.805 10.999,58.805 12.627,62.034 12.636,62.034 
			12.636,58.805 13.453,58.805 13.453,63.127 12.41,63.127 10.779,59.893 10.763,59.893 10.763,63.127 9.947,63.127 		"/>
		<polygon clip-path="url(#SVGID_2_)" fill="#FFFFFF" points="15.414,61.418 13.852,58.805 14.857,58.805 15.867,60.617 
			16.893,58.805 17.795,58.805 16.269,61.418 16.269,63.127 15.414,63.127 		"/>
		<path clip-path="url(#SVGID_2_)" fill="#FFFFFF" d="M18.861,58.805h0.965l1.674,4.322h-0.945l-0.37-0.99h-1.728l-0.371,0.99
			h-0.889L18.861,58.805z M19.33,59.672h-0.014l-0.615,1.785h1.248L19.33,59.672z"/>
		<polygon clip-path="url(#SVGID_2_)" fill="#FFFFFF" points="21.885,58.805 22.938,58.805 24.563,62.034 24.576,62.034 
			24.576,58.805 25.395,58.805 25.395,63.127 24.35,63.127 22.717,59.893 22.703,59.893 22.703,63.127 21.885,63.127 		"/>
		<path clip-path="url(#SVGID_2_)" fill="#FFFFFF" d="M29.555,59.643c-0.16-0.072-0.34-0.135-0.537-0.17
			c-0.197-0.039-0.385-0.062-0.565-0.062c-0.488,0-0.863,0.148-1.138,0.441c-0.274,0.295-0.408,0.668-0.408,1.127
			c0,0.449,0.13,0.82,0.39,1.107c0.26,0.289,0.612,0.432,1.057,0.432c0.215,0,0.398-0.018,0.562-0.061v-1.128h-0.904v-0.677h1.723
			v2.324c-0.256,0.07-0.498,0.125-0.723,0.164c-0.227,0.039-0.443,0.057-0.658,0.057c-0.717,0-1.279-0.176-1.688-0.531
			c-0.211-0.182-0.375-0.406-0.486-0.682c-0.113-0.273-0.166-0.584-0.166-0.946c0-0.733,0.207-1.298,0.621-1.702
			c0.416-0.404,0.988-0.605,1.719-0.605c0.236,0,0.459,0.016,0.658,0.047c0.205,0.033,0.406,0.078,0.596,0.136L29.555,59.643z"/>
		<path clip-path="url(#SVGID_2_)" fill="#FFFFFF" d="M32.061,58.805h0.855v2.496c0,0.385,0.067,0.688,0.207,0.898
			c0.139,0.213,0.368,0.318,0.676,0.318c0.319,0,0.543-0.105,0.682-0.318c0.137-0.211,0.207-0.514,0.207-0.898v-2.496h0.857v2.762
			c0,0.559-0.15,0.973-0.449,1.24c-0.297,0.26-0.726,0.391-1.297,0.391c-0.56,0-0.99-0.131-1.293-0.391
			c-0.299-0.268-0.445-0.682-0.445-1.24V58.805z"/>
		<polygon clip-path="url(#SVGID_2_)" fill="#FFFFFF" points="36.338,58.805 37.391,58.805 39.016,62.034 39.027,62.034 
			39.027,58.805 39.848,58.805 39.848,63.127 38.803,63.127 37.168,59.893 37.158,59.893 37.158,63.127 36.338,63.127 		"/>
		<rect x="40.6" y="58.805" clip-path="url(#SVGID_2_)" fill="#FFFFFF" width="0.855" height="4.321"/>
		<polygon clip-path="url(#SVGID_2_)" fill="#FFFFFF" points="41.816,58.805 42.734,58.805 43.829,62.195 43.841,62.195 
			44.921,58.805 45.771,58.805 44.334,63.127 43.283,63.127 		"/>
		<polygon clip-path="url(#SVGID_2_)" fill="#FFFFFF" points="46.205,58.805 48.727,58.805 48.727,59.488 47.062,59.488 
			47.062,60.549 48.584,60.549 48.584,61.23 47.062,61.23 47.062,62.443 48.736,62.443 48.736,63.127 46.205,63.127 		"/>
		<path clip-path="url(#SVGID_2_)" fill="#FFFFFF" d="M49.409,58.805h0.925c0.325,0,0.596,0.012,0.812,0.029
			c0.215,0.018,0.414,0.064,0.598,0.139c0.182,0.076,0.33,0.193,0.438,0.352c0.107,0.164,0.164,0.379,0.164,0.652
			c0,0.258-0.08,0.484-0.24,0.666c-0.16,0.188-0.371,0.299-0.645,0.336v0.012c0.102,0.006,0.191,0.051,0.266,0.135
			c0.072,0.086,0.137,0.188,0.188,0.311l0.686,1.691h-0.953l-0.514-1.35c-0.064-0.168-0.139-0.285-0.215-0.352
			c-0.082-0.062-0.207-0.096-0.373-0.096h-0.281v1.797h-0.854V58.805z M50.264,60.652h0.283c0.127,0,0.24-0.01,0.338-0.023
			c0.098-0.016,0.195-0.043,0.281-0.084c0.09-0.041,0.156-0.102,0.209-0.184c0.051-0.082,0.074-0.182,0.074-0.311
			c0-0.125-0.023-0.223-0.074-0.305c-0.053-0.073-0.119-0.129-0.207-0.168c-0.084-0.035-0.18-0.062-0.277-0.074
			s-0.211-0.016-0.344-0.016h-0.283V60.652z"/>
		<path clip-path="url(#SVGID_2_)" fill="#FFFFFF" d="M55.387,59.6c-0.281-0.123-0.57-0.189-0.867-0.189
			c-0.082,0-0.162,0.012-0.238,0.033c-0.076,0.018-0.15,0.057-0.213,0.1c-0.068,0.045-0.121,0.105-0.161,0.184
			c-0.038,0.082-0.062,0.176-0.062,0.285c0,0.141,0.061,0.252,0.172,0.332c0.113,0.072,0.297,0.164,0.539,0.258
			c0.182,0.07,0.33,0.135,0.449,0.193c0.119,0.055,0.236,0.131,0.346,0.225c0.109,0.098,0.199,0.215,0.266,0.357
			c0.064,0.141,0.104,0.316,0.104,0.518c0,0.226-0.047,0.424-0.127,0.594c-0.082,0.168-0.201,0.307-0.348,0.406
			c-0.148,0.105-0.314,0.182-0.506,0.232c-0.191,0.047-0.398,0.07-0.623,0.07c-0.195,0-0.357-0.01-0.482-0.027
			c-0.127-0.023-0.301-0.061-0.521-0.113l-0.092-0.025l0.08-0.781c0.152,0.082,0.312,0.15,0.475,0.197
			c0.166,0.048,0.33,0.07,0.492,0.07c0.186,0,0.359-0.047,0.521-0.143c0.16-0.098,0.238-0.236,0.238-0.412
			c0-0.162-0.064-0.283-0.184-0.373c-0.119-0.086-0.309-0.179-0.562-0.277c-0.175-0.07-0.32-0.135-0.436-0.192
			c-0.117-0.058-0.23-0.136-0.334-0.226c-0.107-0.094-0.191-0.209-0.26-0.348c-0.066-0.134-0.098-0.303-0.098-0.496
			c0-0.232,0.041-0.432,0.121-0.602c0.084-0.168,0.193-0.307,0.338-0.412c0.137-0.105,0.295-0.18,0.473-0.232
			c0.174-0.049,0.359-0.074,0.559-0.074c0.375,0,0.717,0.057,1.023,0.154L55.387,59.6z"/>
		<rect x="56.299" y="58.805" clip-path="url(#SVGID_2_)" fill="#FFFFFF" width="0.855" height="4.321"/>
		<polygon clip-path="url(#SVGID_2_)" fill="#FFFFFF" points="58.727,59.488 57.502,59.488 57.502,58.805 60.805,58.805 
			60.805,59.488 59.584,59.488 59.584,63.127 58.727,63.127 		"/>
		<polygon clip-path="url(#SVGID_2_)" fill="#FFFFFF" points="62.357,61.418 60.797,58.805 61.799,58.805 62.811,60.617 
			63.837,58.805 64.742,58.805 63.215,61.418 63.215,63.127 62.357,63.127 		"/>
		<polygon clip-path="url(#SVGID_2_)" fill="#FFFFFF" points="66.76,58.805 67.617,58.805 67.617,60.549 69.326,60.549 
			69.326,58.805 70.182,58.805 70.182,63.127 69.326,63.127 69.326,61.23 67.617,61.23 67.617,63.127 66.76,63.127 		"/>
		<path clip-path="url(#SVGID_2_)" fill="#FFFFFF" d="M71.391,59.336c0.363-0.404,0.881-0.605,1.545-0.605
			c0.33,0,0.623,0.057,0.885,0.164c0.262,0.105,0.48,0.258,0.658,0.457c0.178,0.197,0.312,0.434,0.408,0.705
			c0.094,0.271,0.141,0.572,0.141,0.896c0,0.328-0.047,0.629-0.139,0.902s-0.227,0.512-0.406,0.715
			c-0.176,0.199-0.395,0.355-0.656,0.465c-0.262,0.111-0.557,0.162-0.891,0.162c-0.67,0-1.188-0.203-1.547-0.611
			c-0.363-0.408-0.547-0.953-0.547-1.633C70.842,60.275,71.027,59.74,71.391,59.336 M71.805,61.533
			c0.041,0.187,0.115,0.352,0.211,0.502s0.217,0.268,0.371,0.353c0.154,0.084,0.338,0.13,0.549,0.13s0.393-0.046,0.545-0.13
			c0.152-0.085,0.277-0.202,0.371-0.353c0.098-0.15,0.168-0.315,0.215-0.502c0.043-0.187,0.066-0.375,0.066-0.58
			c0-0.197-0.025-0.391-0.07-0.572c-0.047-0.184-0.121-0.348-0.217-0.494c-0.098-0.146-0.225-0.262-0.379-0.346
			c-0.15-0.084-0.326-0.131-0.531-0.131s-0.383,0.047-0.535,0.131c-0.154,0.084-0.279,0.199-0.377,0.347
			c-0.1,0.147-0.172,0.317-0.217,0.497c-0.047,0.178-0.07,0.371-0.07,0.568C71.736,61.158,71.756,61.347,71.805,61.533"/>
		<path clip-path="url(#SVGID_2_)" fill="#FFFFFF" d="M77.977,59.6c-0.281-0.123-0.57-0.189-0.867-0.189
			c-0.082,0-0.16,0.012-0.236,0.033c-0.08,0.018-0.15,0.057-0.215,0.1c-0.066,0.045-0.121,0.105-0.16,0.184
			c-0.041,0.082-0.062,0.176-0.062,0.285c0,0.141,0.057,0.252,0.172,0.332c0.115,0.072,0.295,0.164,0.541,0.258
			c0.18,0.07,0.328,0.135,0.447,0.193c0.123,0.055,0.235,0.131,0.346,0.225c0.109,0.098,0.199,0.215,0.27,0.357
			c0.062,0.141,0.098,0.316,0.098,0.518c0,0.226-0.041,0.424-0.127,0.594c-0.08,0.168-0.199,0.307-0.346,0.406
			c-0.146,0.105-0.314,0.182-0.505,0.232c-0.192,0.047-0.403,0.07-0.625,0.07c-0.194,0-0.356-0.01-0.483-0.027
			c-0.123-0.023-0.299-0.061-0.516-0.113l-0.094-0.025l0.078-0.781c0.152,0.082,0.309,0.15,0.474,0.197
			c0.167,0.048,0.327,0.07,0.493,0.07c0.188,0,0.357-0.047,0.518-0.143c0.16-0.098,0.239-0.236,0.239-0.412
			c0-0.162-0.06-0.283-0.177-0.373c-0.125-0.086-0.311-0.179-0.568-0.277c-0.172-0.07-0.318-0.135-0.434-0.192
			c-0.117-0.058-0.23-0.136-0.334-0.226c-0.107-0.094-0.195-0.209-0.26-0.348c-0.066-0.134-0.098-0.303-0.098-0.496
			c0-0.232,0.039-0.432,0.121-0.602c0.084-0.168,0.193-0.307,0.334-0.412s0.299-0.18,0.477-0.232
			c0.174-0.049,0.359-0.074,0.563-0.074c0.372,0,0.712,0.057,1.017,0.154L77.977,59.6z"/>
		<path clip-path="url(#SVGID_2_)" fill="none" stroke="#FFFFFF" stroke-miterlimit="10" d="M78.889,58.805h1.084
			c0.248,0,0.477,0.023,0.686,0.064c0.213,0.041,0.397,0.111,0.562,0.209c0.166,0.1,0.294,0.234,0.389,0.406
			c0.092,0.17,0.143,0.382,0.143,0.627c0,0.246-0.045,0.451-0.127,0.631s-0.199,0.322-0.346,0.434
			c-0.146,0.106-0.32,0.188-0.52,0.236c-0.202,0.049-0.416,0.072-0.652,0.072h-0.363v1.643h-0.855V58.805z M79.744,60.803h0.301
			c0.244,0,0.441-0.047,0.59-0.148c0.146-0.096,0.223-0.262,0.223-0.492c0-0.236-0.076-0.408-0.225-0.516
			c-0.152-0.105-0.35-0.158-0.588-0.158h-0.301V60.803z"/>
		<rect x="82.168" y="58.805" clip-path="url(#SVGID_2_)" fill="#FFFFFF" width="0.855" height="4.321"/>
		<polygon clip-path="url(#SVGID_2_)" fill="#FFFFFF" points="84.592,59.488 83.371,59.488 83.371,58.805 86.674,58.805 
			86.674,59.488 85.447,59.488 85.447,63.127 84.592,63.127 		"/>
		<path clip-path="url(#SVGID_2_)" fill="#FFFFFF" d="M87.826,58.805h0.965l1.678,4.322H89.52l-0.363-0.99h-1.73l-0.373,0.99h-0.887
			L87.826,58.805z M88.299,59.672h-0.01l-0.619,1.785h1.246L88.299,59.672z"/>
		<polygon clip-path="url(#SVGID_2_)" fill="#FFFFFF" points="90.895,58.805 91.749,58.805 91.749,62.443 93.41,62.443 
			93.41,63.127 90.895,63.127 		"/>
		<path clip-path="url(#SVGID_2_)" fill="#FFFFFF" d="M16.951,42.385c2.013,0,3.603,1.51,3.603,3.385s-1.59,3.383-3.603,3.383
			c-2.01,0-3.6-1.508-3.6-3.383S14.941,42.385,16.951,42.385 M16.951,44.004c-0.86,0-1.617,0.777-1.617,1.766
			c0,0.992,0.757,1.77,1.617,1.77c0.867,0,1.621-0.777,1.621-1.77C18.572,44.781,17.818,44.004,16.951,44.004 M20.602,55.881
			c-1.971,0-3.523-1.381-3.523-3.096c0-1.73,1.552-3.111,3.523-3.111c1.984,0,3.526,1.381,3.526,3.111
			C24.127,54.5,22.585,55.881,20.602,55.881 M20.602,51.254c-0.832,0-1.557,0.693-1.557,1.531c0,0.822,0.676,1.512,1.51,1.512
			c0.832,0,1.571-0.689,1.571-1.512C22.125,51.947,21.432,51.254,20.602,51.254 M26.148,43.793v1.541h-1.92v0.939h1.951v1.539
			h-1.951v1.674h-2.012v-7.207h2.012v1.514H26.148z"/>
		<polygon clip-path="url(#SVGID_2_)" fill="#FFFFFF" points="57.668,48.203 59.582,48.203 59.582,52.363 60.844,52.363 
			60.844,48.203 62.754,48.203 62.754,52.363 67.338,52.363 67.338,53.974 54.955,53.974 54.955,52.363 57.668,52.363 		"/>
		<polygon clip-path="url(#SVGID_2_)" fill="#FFFFFF" points="37.416,42.279 37.416,45.58 36.363,45.58 36.363,42.279 
			34.465,42.279 34.465,55.359 36.363,55.359 36.363,47.324 37.416,47.324 37.416,55.359 39.379,55.359 39.379,42.279 		"/>
		<path clip-path="url(#SVGID_2_)" fill="#FFFFFF" d="M30.162,48.877v-4.475h3.182v-1.645h-5.186v6.553
			c0,0.475,0.004,0.768,0.221,0.986c0.224,0.219,0.506,0.227,0.976,0.227h4.254v-1.646H30.162z"/>
		<polygon clip-path="url(#SVGID_2_)" fill="#FFFFFF" points="77.693,42.279 77.693,43.742 75.73,43.742 75.73,45.297 
			77.693,45.297 77.693,46.189 75.73,46.189 75.73,47.742 77.693,47.742 77.693,49.486 79.711,49.486 79.711,42.279 		"/>
		<path clip-path="url(#SVGID_2_)" fill="#FFFFFF" d="M74.934,42.5h-2.016v1.859h-2.346V42.5h-2.012V48
			c0,0.469,0.004,0.759,0.217,0.977c0.221,0.223,0.51,0.225,0.977,0.225h5.18V42.5z M72.918,47.634h-2.346v-1.721h2.346V47.634z"/>
		<path clip-path="url(#SVGID_2_)" fill="#FFFFFF" d="M75.879,49.674c-1.969,0-3.521,1.381-3.521,3.111
			c0,1.715,1.553,3.096,3.521,3.096c1.984,0,3.521-1.381,3.521-3.096C79.4,51.055,77.863,49.674,75.879,49.674 M75.834,54.297
			c-0.832,0-1.51-0.689-1.51-1.512c0-0.838,0.727-1.531,1.555-1.531c0.838,0,1.525,0.693,1.525,1.531
			C77.404,53.607,76.664,54.297,75.834,54.297"/>
		<polygon clip-path="url(#SVGID_2_)" fill="#FFFFFF" points="88.465,51.381 91.328,51.381 91.328,52.586 93.342,52.586 
			93.342,42.279 91.328,42.279 91.328,49.961 88.465,49.961 		"/>
		<path clip-path="url(#SVGID_2_)" fill="#FFFFFF" d="M86.752,53.75v-1.926h-2.031v2.324c0,0.477,0.006,0.77,0.227,0.986
			c0.217,0.219,0.5,0.225,0.969,0.225h7.516V53.75H86.752z"/>
		<path clip-path="url(#SVGID_2_)" fill="#FFFFFF" d="M86.078,47.777c1.934,0,3.506-1.328,3.506-2.896
			c0-1.564-1.572-2.875-3.506-2.875c-1.922,0-3.49,1.311-3.49,2.875C82.588,46.449,84.156,47.777,86.078,47.777 M86.078,43.533
			c0.846,0,1.51,0.574,1.51,1.348c0,0.748-0.711,1.361-1.51,1.361c-0.785,0-1.498-0.613-1.498-1.361
			C84.58,44.107,85.242,43.533,86.078,43.533"/>
		<path clip-path="url(#SVGID_2_)" fill="#FFFFFF" d="M84.111,48.137h-2.408v1.498l3.004-0.014v1.566h2.059v-1.641
			c1.467-0.047,3.322-0.201,4.072-0.306v-1.464C89.402,47.934,86.168,48.137,84.111,48.137"/>
		<path clip-path="url(#SVGID_2_)" fill="#FFFFFF" d="M48.961,46.598c0-0.674-0.289-1.293-0.742-1.791h1.504v-1.57h-3.121v-1.154
			h-2.153v1.154h-3.203v1.57h1.545c-0.447,0.498-0.74,1.117-0.74,1.791c0,1.689,1.5,3.064,3.453,3.064
			C47.453,49.662,48.961,48.287,48.961,46.598 M44.008,46.566c0-0.844,0.762-1.572,1.496-1.572s1.494,0.729,1.494,1.572
			c0,0.824-0.76,1.549-1.494,1.549S44.008,47.391,44.008,46.566"/>
		<path clip-path="url(#SVGID_2_)" fill="#FFFFFF" d="M51.982,50.447h-8.061v1.576h6.747v3.336h2.025v-4.186
			c0-0.285,0-0.459-0.133-0.588C52.432,50.459,52.266,50.447,51.982,50.447"/>
		<polygon clip-path="url(#SVGID_2_)" fill="#FFFFFF" points="52.693,45.133 52.693,42.278 50.68,42.278 50.68,49.592 
			52.693,49.592 52.693,46.762 54.617,46.762 54.617,45.133 		"/>
		<path clip-path="url(#SVGID_2_)" fill="#FFFFFF" d="M65.236,42.713h-8.848v1.617h7.535v6.033h2.033v-6.924
			c0-0.281-0.006-0.459-0.139-0.586C65.693,42.723,65.518,42.713,65.236,42.713"/>
		<polygon clip-path="url(#SVGID_2_)" fill="#FFFFFF" points="7.135,47.074 9.485,47.074 9.485,51.854 11.496,51.854 11.496,42.279 
			9.485,42.279 9.485,45.465 7.135,45.465 		"/>
		<path clip-path="url(#SVGID_2_)" fill="#FFFFFF" d="M5.506,47.338c1.09-1.277,1.76-2.848,1.787-4.625H0.736v1.588h4.1
			c-0.121,0.974-0.805,1.933-1.725,2.762C2.184,47.889,1.035,48.561,0,48.914l1.111,1.312C2.854,49.635,4.395,48.633,5.506,47.338"
			/>
		<path clip-path="url(#SVGID_2_)" fill="#FFFFFF" d="M5.342,53.75v-2.906H3.309v3.305c0,0.477,0.008,0.77,0.228,0.986
			c0.217,0.219,0.498,0.225,0.969,0.225h7.313V53.75H5.342z"/>
	</g>
</g>
</svg>
