<?xml version="1.0" encoding="utf-8"?>
<!-- Generator: Adobe Illustrator 16.0.0, SVG Export Plug-In . SVG Version: 6.00 Build 0)  -->
<!DOCTYPE svg PUBLIC "-//W3C//DTD SVG 1.1//EN" "http://www.w3.org/Graphics/SVG/1.1/DTD/svg11.dtd">
<svg xmlns:xlink="http://www.w3.org/1999/xlink" version="1.1" id="Layer_1" xmlns="http://www.w3.org/2000/svg" x="0px"
     y="0px"
     width="231.35px" height="35.32px" viewBox="0 0 231.35 35.32" enable-background="new 0 0 231.35 35.32"
     xml:space="preserve">
<g>
	<defs>
		<rect id="SVGID_1_" y="0" width="231.35" height="35.32"/>
	</defs>
    <clipPath id="SVGID_2_">
		<use xlink:href="#SVGID_1_" overflow="visible"/>
	</clipPath>
    <path clip-path="url(#SVGID_2_)" fill="#7DC242" d="M59.555,1.055c-2.673,0-3.938,0.695-5.262,3.131l-3.191,5.877h-0.096
		c-0.543-2.305-1.507-4.555-2.994-5.985c-2.23-2.138-5.154-3.023-8.608-3.023h-8.896c5.643,2.404,10.252,9.211,10.252,16.777
		c0,6.276-3.164,11.573-7.791,14.02c2.084,1.725,4.529,2.844,7.208,2.844c6.85,0,11.577-4.021,15.199-10.502
		C66.817,3.707,68.39,1.055,68.39,1.055H59.555z"/>
    <path clip-path="url(#SVGID_2_)" fill="#006940" d="M24.594,18.105c0-6.344,3.213-11.813,7.838-14.291
		c-2.082-1.74-4.58-2.758-7.262-2.758c-5.832,0-10.787,4.809-12.579,11.496h-0.152V4.757c0-1.293-0.019-2.072-0.613-2.67
		c-0.599-0.597-1.409-0.611-2.695-0.611H0v33.592h9.131c1.286,0,2.096-0.016,2.695-0.613c0.594-0.6,0.613-1.379,0.613-2.672v-8.211
		h0.152c1.792,6.688,6.747,11.496,12.579,11.496h9.924v-0.041C29.311,32.604,24.594,25.736,24.594,18.105"/>
    <polygon clip-path="url(#SVGID_2_)" fill="#696A6D" points="77.959,28.002 79.383,28.002 79.383,31.092 81.951,28.002
		83.706,28.002 80.783,31.395 83.83,35.197 81.963,35.197 79.406,31.855 79.383,31.855 79.383,35.197 77.959,35.197 	"/>
    <path clip-path="url(#SVGID_2_)" fill="#696A6D" d="M85.116,28.883c0.609-0.672,1.467-1.008,2.575-1.008
		c0.554,0,1.042,0.092,1.479,0.27c0.432,0.18,0.8,0.434,1.093,0.762c0.296,0.332,0.524,0.725,0.683,1.178
		c0.154,0.453,0.231,0.953,0.231,1.494c0,0.549-0.076,1.051-0.227,1.506c-0.155,0.451-0.382,0.848-0.675,1.186
		c-0.296,0.336-0.663,0.598-1.093,0.777c-0.439,0.184-0.935,0.272-1.491,0.272c-1.116,0-1.972-0.337-2.575-1.019
		c-0.608-0.682-0.909-1.588-0.909-2.723C84.207,30.449,84.509,29.551,85.116,28.883 M85.807,32.547
		c0.074,0.309,0.193,0.588,0.354,0.836c0.16,0.246,0.367,0.443,0.619,0.59c0.252,0.141,0.559,0.215,0.911,0.215
		c0.354,0,0.657-0.074,0.911-0.215c0.26-0.146,0.463-0.344,0.623-0.59c0.159-0.248,0.277-0.527,0.353-0.836
		c0.075-0.307,0.108-0.631,0.108-0.969c0-0.33-0.035-0.648-0.113-0.953c-0.078-0.306-0.201-0.582-0.365-0.824
		c-0.161-0.246-0.37-0.438-0.626-0.58c-0.255-0.139-0.551-0.211-0.891-0.211c-0.34,0-0.639,0.072-0.888,0.211
		c-0.258,0.143-0.469,0.336-0.631,0.584c-0.16,0.244-0.283,0.523-0.359,0.824c-0.078,0.303-0.119,0.619-0.119,0.949
		C85.693,31.916,85.732,32.24,85.807,32.547"/>
    <polygon clip-path="url(#SVGID_2_)" fill="#696A6D" points="92.205,28.002 93.959,28.002 96.67,33.383 96.69,33.383 96.69,28.002
		98.051,28.002 98.051,35.197 96.309,35.197 93.59,29.813 93.57,29.813 93.57,35.197 92.205,35.197 	"/>
    <polygon clip-path="url(#SVGID_2_)" fill="#696A6D" points="101.316,32.352 98.714,28.002 100.387,28.002 102.068,31.021
		103.781,28.002 105.29,28.002 102.743,32.352 102.743,35.197 101.316,35.197 	"/>
    <path clip-path="url(#SVGID_2_)" fill="#696A6D" d="M107.064,28.002h1.605l2.792,7.195h-1.579l-0.609-1.65h-2.885l-0.619,1.65
		h-1.48L107.064,28.002z M107.848,29.443h-0.023l-1.027,2.971h2.079L107.848,29.443z"/>
    <polygon clip-path="url(#SVGID_2_)" fill="#696A6D" points="112.102,28.002 113.854,28.002 116.566,33.383 116.588,33.383
		116.588,28.002 117.955,28.002 117.955,35.197 116.211,35.197 113.491,29.813 113.469,29.813 113.469,35.197 112.102,35.197 	"/>
    <path clip-path="url(#SVGID_2_)" fill="#696A6D" d="M124.883,29.393c-0.264-0.125-0.565-0.221-0.894-0.283
		c-0.328-0.066-0.645-0.1-0.942-0.1c-0.811,0-1.439,0.244-1.894,0.734c-0.46,0.486-0.685,1.113-0.685,1.875
		c0,0.75,0.221,1.365,0.65,1.846c0.438,0.482,1.023,0.723,1.763,0.723c0.358,0,0.669-0.033,0.94-0.105v-1.875h-1.512v-1.133h2.874
		v3.877c-0.425,0.117-0.827,0.205-1.202,0.271c-0.383,0.065-0.742,0.098-1.101,0.098c-1.194,0-2.13-0.293-2.812-0.887
		c-0.351-0.301-0.62-0.68-0.81-1.135c-0.184-0.455-0.277-0.975-0.277-1.576c0-1.225,0.348-2.172,1.039-2.84
		c0.691-0.672,1.645-1.008,2.86-1.008c0.396,0,0.765,0.025,1.101,0.081c0.34,0.052,0.671,0.125,0.991,0.222L124.883,29.393z"/>
    <path clip-path="url(#SVGID_2_)" fill="#696A6D" d="M129.061,28.002h1.424v4.156c0,0.645,0.115,1.143,0.348,1.498
		c0.229,0.354,0.609,0.531,1.129,0.531c0.525,0,0.902-0.178,1.129-0.531c0.233-0.355,0.35-0.854,0.35-1.498v-4.156h1.428v4.596
		c0,0.936-0.249,1.623-0.748,2.064c-0.495,0.441-1.209,0.658-2.158,0.658c-0.936,0-1.652-0.217-2.156-0.658
		c-0.498-0.441-0.744-1.129-0.744-2.064V28.002z"/>
    <polygon clip-path="url(#SVGID_2_)" fill="#696A6D" points="136.188,28.002 137.943,28.002 140.653,33.383 140.672,33.383
		140.672,28.002 142.041,28.002 142.041,35.197 140.297,35.197 137.574,29.813 137.557,29.813 137.557,35.197 136.188,35.197 	"/>
    <rect x="143.29" y="28.002" clip-path="url(#SVGID_2_)" fill="#696A6D" width="1.43" height="7.195"/>
    <polygon clip-path="url(#SVGID_2_)" fill="#696A6D" points="145.32,28.002 146.85,28.002 148.672,33.65 148.697,33.65
		150.497,28.002 151.912,28.002 149.519,35.197 147.764,35.197 	"/>
    <polygon clip-path="url(#SVGID_2_)" fill="#696A6D" points="152.633,28.002 156.838,28.002 156.838,29.135 154.062,29.135
		154.062,30.908 156.597,30.908 156.597,32.041 154.062,32.041 154.062,34.062 156.853,34.062 156.853,35.197 152.633,35.197 	"/>
    <path clip-path="url(#SVGID_2_)" fill="#696A6D" d="M157.974,28.002h1.541c0.541,0,0.994,0.016,1.354,0.047
		c0.358,0.029,0.69,0.105,0.996,0.23c0.305,0.123,0.552,0.32,0.729,0.586c0.18,0.27,0.276,0.631,0.276,1.084
		c0,0.432-0.133,0.805-0.401,1.113c-0.267,0.311-0.62,0.496-1.073,0.557v0.021c0.17,0.014,0.317,0.088,0.442,0.227
		c0.121,0.139,0.226,0.309,0.314,0.516l1.14,2.814h-1.589l-0.856-2.248c-0.11-0.283-0.228-0.475-0.358-0.582
		c-0.136-0.106-0.345-0.16-0.625-0.16H159.4v2.99h-1.427V28.002z M159.4,31.074h0.473c0.207,0,0.394-0.014,0.562-0.037
		c0.166-0.023,0.32-0.07,0.468-0.141c0.149-0.068,0.262-0.168,0.348-0.303c0.084-0.135,0.125-0.309,0.125-0.52
		c0-0.207-0.041-0.375-0.125-0.504c-0.086-0.125-0.198-0.221-0.344-0.281c-0.142-0.062-0.295-0.104-0.463-0.125
		c-0.166-0.02-0.354-0.029-0.57-0.029H159.4V31.074z"/>
    <path clip-path="url(#SVGID_2_)" fill="#696A6D" d="M167.939,29.322c-0.469-0.207-0.95-0.312-1.448-0.312
		c-0.134,0-0.265,0.018-0.394,0.053c-0.131,0.03-0.252,0.09-0.356,0.164c-0.112,0.075-0.201,0.178-0.269,0.309
		c-0.065,0.131-0.104,0.291-0.104,0.476c0,0.235,0.099,0.416,0.289,0.548c0.188,0.127,0.494,0.275,0.899,0.432
		c0.299,0.117,0.545,0.223,0.744,0.32c0.203,0.096,0.396,0.225,0.578,0.381c0.184,0.158,0.331,0.355,0.446,0.594
		c0.106,0.236,0.166,0.521,0.166,0.861c0,0.377-0.072,0.707-0.211,0.989c-0.136,0.282-0.33,0.507-0.574,0.681
		c-0.246,0.172-0.526,0.299-0.844,0.381c-0.318,0.082-0.668,0.123-1.041,0.123c-0.326,0-0.597-0.016-0.806-0.049
		c-0.209-0.037-0.5-0.098-0.867-0.188l-0.147-0.043l0.128-1.297c0.252,0.135,0.518,0.246,0.79,0.326
		c0.277,0.078,0.548,0.117,0.822,0.117c0.31,0,0.597-0.08,0.864-0.242c0.269-0.162,0.398-0.394,0.398-0.686
		c0-0.268-0.103-0.475-0.302-0.619c-0.201-0.145-0.517-0.301-0.938-0.465c-0.291-0.117-0.531-0.223-0.726-0.32
		c-0.2-0.095-0.383-0.221-0.562-0.375c-0.178-0.154-0.317-0.348-0.43-0.576c-0.111-0.23-0.164-0.508-0.164-0.83
		c0-0.385,0.071-0.719,0.203-1c0.139-0.281,0.321-0.512,0.561-0.688c0.23-0.175,0.494-0.302,0.787-0.384
		c0.291-0.086,0.606-0.127,0.938-0.127c0.623,0,1.192,0.088,1.701,0.258L167.939,29.322z"/>
    <rect x="169.458" y="28.002" clip-path="url(#SVGID_2_)" fill="#696A6D" width="1.425" height="7.195"/>
    <polygon clip-path="url(#SVGID_2_)" fill="#696A6D" points="173.5,29.135 171.465,29.135 171.465,28.002 176.969,28.002
		176.969,29.135 174.93,29.135 174.93,35.196 173.5,35.196 	"/>
    <polygon clip-path="url(#SVGID_2_)" fill="#696A6D" points="179.559,32.352 176.957,28.002 178.627,28.002 180.309,31.021
		182.025,28.002 183.531,28.002 180.984,32.352 180.984,35.197 179.559,35.197 	"/>
    <polygon clip-path="url(#SVGID_2_)" fill="#696A6D" points="186.895,28.002 188.322,28.002 188.322,30.908 191.172,30.908
		191.172,28.002 192.6,28.002 192.6,35.197 191.172,35.197 191.172,32.041 188.322,32.041 188.322,35.197 186.895,35.197 	"/>
    <path clip-path="url(#SVGID_2_)" fill="#696A6D" d="M194.613,28.883c0.604-0.672,1.465-1.008,2.574-1.008
		c0.547,0,1.037,0.092,1.475,0.27c0.434,0.18,0.801,0.434,1.096,0.762c0.297,0.332,0.521,0.725,0.678,1.178
		c0.156,0.453,0.234,0.953,0.234,1.494c0,0.549-0.076,1.051-0.229,1.506c-0.152,0.451-0.375,0.848-0.678,1.186
		c-0.293,0.336-0.656,0.598-1.092,0.777c-0.438,0.184-0.93,0.272-1.484,0.272c-1.118,0-1.979-0.337-2.58-1.019
		c-0.604-0.682-0.908-1.588-0.908-2.723C193.699,30.449,194.006,29.551,194.613,28.883 M195.299,32.547
		c0.072,0.309,0.193,0.588,0.352,0.836c0.16,0.246,0.363,0.443,0.621,0.59c0.256,0.141,0.561,0.215,0.916,0.215
		c0.35,0,0.658-0.074,0.908-0.215c0.254-0.146,0.461-0.344,0.619-0.59c0.16-0.248,0.281-0.527,0.354-0.836
		c0.074-0.307,0.113-0.631,0.113-0.969c0-0.33-0.041-0.648-0.117-0.953c-0.08-0.306-0.203-0.582-0.361-0.824
		c-0.16-0.246-0.375-0.438-0.631-0.58c-0.248-0.139-0.547-0.211-0.885-0.211c-0.344,0-0.639,0.072-0.895,0.211
		c-0.256,0.143-0.463,0.336-0.627,0.584c-0.162,0.244-0.285,0.523-0.361,0.824c-0.078,0.303-0.117,0.619-0.117,0.949
		C195.188,31.916,195.223,32.24,195.299,32.547"/>
    <path clip-path="url(#SVGID_2_)" fill="#696A6D" d="M205.592,29.322c-0.469-0.207-0.953-0.312-1.449-0.312
		c-0.137,0-0.268,0.018-0.395,0.053c-0.131,0.03-0.252,0.09-0.357,0.164c-0.113,0.075-0.199,0.178-0.266,0.309
		c-0.07,0.131-0.105,0.291-0.105,0.476c0,0.235,0.096,0.416,0.289,0.548c0.188,0.127,0.49,0.275,0.898,0.432
		c0.299,0.117,0.547,0.223,0.746,0.32c0.203,0.096,0.393,0.225,0.576,0.381c0.184,0.158,0.332,0.355,0.445,0.594
		c0.109,0.236,0.168,0.521,0.168,0.861c0,0.377-0.072,0.707-0.211,0.989c-0.137,0.282-0.332,0.507-0.578,0.681
		c-0.242,0.172-0.521,0.299-0.842,0.381s-0.67,0.123-1.039,0.123c-0.328,0-0.598-0.016-0.807-0.049
		c-0.209-0.037-0.5-0.098-0.863-0.188l-0.154-0.043l0.13-1.297c0.253,0.135,0.517,0.246,0.79,0.326
		c0.277,0.078,0.547,0.117,0.822,0.117c0.312,0,0.596-0.08,0.865-0.242c0.266-0.162,0.398-0.394,0.398-0.686
		c0-0.268-0.1-0.475-0.299-0.619c-0.205-0.145-0.518-0.301-0.943-0.465c-0.287-0.117-0.529-0.223-0.725-0.32
		c-0.197-0.095-0.383-0.221-0.559-0.375c-0.178-0.154-0.32-0.348-0.432-0.576c-0.111-0.23-0.164-0.508-0.164-0.83
		c0-0.385,0.068-0.719,0.203-1c0.141-0.281,0.322-0.512,0.559-0.688c0.233-0.175,0.496-0.302,0.791-0.384
		c0.289-0.086,0.602-0.127,0.938-0.127c0.623,0,1.189,0.088,1.699,0.258L205.592,29.322z"/>
    <path clip-path="url(#SVGID_2_)" fill="#696A6D" d="M207.109,28.002h1.803c0.414,0,0.797,0.033,1.145,0.102
		c0.354,0.07,0.664,0.186,0.938,0.35c0.277,0.164,0.492,0.393,0.648,0.676c0.154,0.285,0.238,0.635,0.238,1.047
		c0,0.406-0.076,0.756-0.213,1.051c-0.137,0.299-0.33,0.537-0.578,0.717c-0.242,0.182-0.529,0.314-0.865,0.396
		c-0.332,0.086-0.693,0.125-1.088,0.125h-0.604v2.732h-1.424V28.002z M208.533,31.33h0.5c0.408,0,0.738-0.082,0.984-0.25
		c0.248-0.16,0.373-0.436,0.373-0.822c0-0.391-0.125-0.676-0.377-0.855c-0.25-0.18-0.582-0.268-0.98-0.268h-0.5V31.33z"/>
    <rect x="212.57" y="28.002" clip-path="url(#SVGID_2_)" fill="#696A6D" width="1.428" height="7.195"/>
    <polygon clip-path="url(#SVGID_2_)" fill="#696A6D" points="216.615,29.135 214.582,29.135 214.582,28.002 220.082,28.002
		220.082,29.135 218.039,29.135 218.039,35.196 216.615,35.196 	"/>
    <path clip-path="url(#SVGID_2_)" fill="#696A6D" d="M222.004,28.002h1.611l2.791,7.195h-1.578l-0.609-1.65h-2.885l-0.621,1.65
		h-1.479L222.004,28.002z M222.791,29.443h-0.018l-1.031,2.971h2.078L222.791,29.443z"/>
    <polygon clip-path="url(#SVGID_2_)" fill="#696A6D" points="227.119,28.002 228.543,28.002 228.543,34.062 231.308,34.062
		231.308,35.197 227.119,35.197 	"/>
    <path clip-path="url(#SVGID_2_)" fill="#696A6D" d="M103.881,0.628c3.355,0,6.004,2.52,6.004,5.643s-2.649,5.641-6.004,5.641
		c-3.353,0-5.998-2.518-5.998-5.641S100.528,0.628,103.881,0.628 M103.881,3.333c-1.436,0-2.694,1.292-2.694,2.939
		c0,1.652,1.258,2.945,2.694,2.945c1.443,0,2.701-1.293,2.701-2.945C106.582,4.625,105.324,3.333,103.881,3.333 M109.965,23.127
		c-3.284,0-5.875-2.303-5.875-5.163c0-2.881,2.591-5.185,5.875-5.185c3.303,0,5.874,2.304,5.874,5.185
		C115.839,20.824,113.268,23.127,109.965,23.127 M109.965,15.417c-1.389,0-2.596,1.152-2.596,2.548c0,1.372,1.128,2.522,2.516,2.522
		c1.386,0,2.617-1.15,2.617-2.522C112.502,16.568,111.348,15.417,109.965,15.417 M119.208,2.979v2.57h-3.2v1.567h3.252v2.56h-3.252
		v2.795h-3.354V0.458h3.354v2.521H119.208z"/>
    <polygon clip-path="url(#SVGID_2_)" fill="#696A6D" points="171.742,10.33 174.931,10.33 174.931,17.264 177.035,17.264
		177.035,10.33 180.215,10.33 180.215,17.264 187.857,17.264 187.857,19.945 167.217,19.945 167.217,17.264 171.742,17.264 	"/>
    <polygon clip-path="url(#SVGID_2_)" fill="#696A6D" points="137.988,0.457 137.988,5.959 136.236,5.959 136.236,0.457
		133.068,0.457 133.068,22.258 136.236,22.258 136.236,8.861 137.988,8.861 137.988,22.258 141.258,22.258 141.258,0.457 	"/>
    <path clip-path="url(#SVGID_2_)" fill="#696A6D" d="M125.895,11.457V3.996h5.305v-2.74h-8.643V12.18c0,0.783,0.01,1.275,0.371,1.64
		c0.375,0.362,0.844,0.377,1.624,0.377h7.093v-2.74H125.895z"/>
    <polygon clip-path="url(#SVGID_2_)" fill="#696A6D" points="205.113,0.457 205.113,2.891 201.844,2.891 201.844,5.48 205.113,5.48
		205.113,6.975 201.844,6.975 201.844,9.562 205.113,9.562 205.113,12.471 208.479,12.471 208.479,0.457 	"/>
    <path clip-path="url(#SVGID_2_)" fill="#696A6D" d="M200.518,0.824h-3.359v3.098h-3.908V0.824h-3.355v9.164
		c0,0.785,0.006,1.269,0.363,1.633c0.365,0.363,0.85,0.371,1.627,0.371h8.633V0.824z M197.158,9.377h-3.908V6.516h3.908V9.377z"/>
    <path clip-path="url(#SVGID_2_)" fill="#696A6D" d="M202.094,12.779c-3.281,0-5.871,2.305-5.871,5.186
		c0,2.859,2.59,5.162,5.871,5.162c3.305,0,5.867-2.303,5.867-5.162C207.961,15.084,205.398,12.779,202.094,12.779 M202.018,20.486
		c-1.387,0-2.518-1.15-2.518-2.521c0-1.397,1.209-2.549,2.594-2.549c1.395,0,2.541,1.152,2.541,2.549
		C204.635,19.336,203.402,20.486,202.018,20.486"/>
    <polygon clip-path="url(#SVGID_2_)" fill="#696A6D" points="223.066,15.625 227.842,15.625 227.842,17.631 231.199,17.631
		231.199,0.457 227.842,0.457 227.842,13.256 223.066,13.256 	"/>
    <path clip-path="url(#SVGID_2_)" fill="#696A6D" d="M220.213,19.57v-3.209h-3.383v3.881c0,0.787,0.008,1.279,0.373,1.642
		c0.365,0.36,0.836,0.375,1.621,0.375h12.525V19.57H220.213z"/>
    <path clip-path="url(#SVGID_2_)" fill="#696A6D" d="M219.092,9.617c3.223,0,5.842-2.211,5.842-4.822
		c0-2.613-2.619-4.795-5.842-4.795c-3.203,0-5.818,2.182-5.818,4.795C213.273,7.406,215.889,9.617,219.092,9.617 M219.092,2.549
		c1.408,0,2.514,0.957,2.514,2.246c0,1.246-1.184,2.268-2.514,2.268c-1.311,0-2.496-1.022-2.496-2.268
		C216.596,3.506,217.699,2.549,219.092,2.549"/>
    <path clip-path="url(#SVGID_2_)" fill="#696A6D" d="M215.814,10.215h-4.014v2.5l5.004-0.021v2.613h3.43v-2.738
		c2.445-0.083,5.537-0.338,6.791-0.508V9.617C224.631,9.881,219.238,10.215,215.814,10.215"/>
    <path clip-path="url(#SVGID_2_)" fill="#696A6D" d="M157.229,7.655c0-1.123-0.481-2.153-1.239-2.989h2.512V2.051h-5.207V0.126
		h-3.583v1.924h-5.341v2.615h2.57c-0.739,0.836-1.229,1.866-1.229,2.989c0,2.816,2.494,5.109,5.754,5.109
		C154.713,12.764,157.229,10.471,157.229,7.655 M148.973,7.6c0-1.406,1.271-2.621,2.494-2.621c1.225,0,2.49,1.215,2.49,2.621
		c0,1.373-1.266,2.588-2.49,2.588C150.244,10.188,148.973,8.973,148.973,7.6"/>
    <path clip-path="url(#SVGID_2_)" fill="#696A6D" d="M162.262,14.07h-13.434v2.623h11.244v5.565h3.377v-6.983
		c0-0.467-0.003-0.762-0.218-0.976C163.012,14.086,162.735,14.07,162.262,14.07"/>
    <polygon clip-path="url(#SVGID_2_)" fill="#696A6D" points="163.449,5.209 163.449,0.457 160.09,0.457 160.09,12.643
		163.449,12.643 163.449,7.924 166.654,7.924 166.654,5.209 	"/>
    <path clip-path="url(#SVGID_2_)" fill="#696A6D" d="M184.359,1.18h-14.75v2.691h12.557v10.057h3.389V2.389
		c0-0.471-0.008-0.764-0.229-0.977C185.113,1.196,184.822,1.18,184.359,1.18"/>
    <polygon clip-path="url(#SVGID_2_)" fill="#696A6D" points="87.518,8.453 91.438,8.453 91.438,16.414 94.789,16.414 94.789,0.457
		91.438,0.457 91.438,5.762 87.518,5.762 	"/>
    <path clip-path="url(#SVGID_2_)" fill="#696A6D" d="M84.803,8.887c1.818-2.131,2.934-4.746,2.982-7.707H76.852v2.646h6.837
		c-0.204,1.623-1.341,3.223-2.874,4.604c-1.547,1.379-3.46,2.494-5.186,3.084l1.855,2.191C80.384,12.715,82.953,11.047,84.803,8.887
		"/>
    <path clip-path="url(#SVGID_2_)" fill="#696A6D" d="M84.531,19.57v-4.838h-3.389v5.51c0,0.787,0.014,1.279,0.377,1.642
		c0.362,0.36,0.834,0.375,1.621,0.375h12.185V19.57H84.531z"/>
</g>
</svg>
